G75*
G70*
%OFA0B0*%
%FSLAX24Y24*%
%IPPOS*%
%LPD*%
%AMOC8*
5,1,8,0,0,1.08239X$1,22.5*
%
%ADD10R,0.0580X0.0300*%
%ADD11R,0.0300X0.0580*%
%ADD12R,0.0592X0.0671*%
%ADD13R,0.0277X0.1064*%
%ADD14R,0.0867X0.1064*%
%ADD15C,0.0434*%
%ADD16R,0.0671X0.0592*%
%ADD17C,0.0872*%
%ADD18R,0.0540X0.0710*%
%ADD19R,0.0060X0.0720*%
%ADD20C,0.0952*%
%ADD21OC8,0.0952*%
%ADD22R,0.0552X0.0789*%
%ADD23C,0.0872*%
%ADD24R,0.0789X0.0552*%
%ADD25R,0.0356X0.0434*%
%ADD26R,0.0552X0.0552*%
%ADD27C,0.0952*%
%ADD28C,0.0986*%
%ADD29R,0.1852X0.1852*%
%ADD30C,0.0474*%
%ADD31C,0.0671*%
%ADD32R,0.2049X0.1261*%
%ADD33R,0.0986X0.0986*%
%ADD34R,0.1537X0.0789*%
%ADD35OC8,0.0872*%
%ADD36R,0.0946X0.0671*%
%ADD37R,0.0631X0.0789*%
%ADD38R,0.0789X0.0631*%
%ADD39R,0.0552X0.0395*%
%ADD40C,0.0940*%
D10*
X006435Y005648D03*
X006435Y005963D03*
X006435Y006278D03*
X006435Y006593D03*
X006435Y006907D03*
X006435Y007222D03*
X006435Y007537D03*
X006435Y007852D03*
X009815Y007852D03*
X009815Y007537D03*
X009815Y007222D03*
X009815Y006907D03*
X009815Y006593D03*
X009815Y006278D03*
X009815Y005963D03*
X009815Y005648D03*
D11*
X009227Y005060D03*
X008912Y005060D03*
X008597Y005060D03*
X008282Y005060D03*
X007968Y005060D03*
X007653Y005060D03*
X007338Y005060D03*
X007023Y005060D03*
X007023Y008440D03*
X007338Y008440D03*
X007653Y008440D03*
X007968Y008440D03*
X008282Y008440D03*
X008597Y008440D03*
X008912Y008440D03*
X009227Y008440D03*
D12*
X013313Y004375D03*
X014062Y004375D03*
X008249Y013000D03*
X007501Y013000D03*
X008501Y013875D03*
X009249Y013875D03*
X010251Y014000D03*
X010999Y014000D03*
X010499Y015250D03*
X009751Y015250D03*
X011376Y015625D03*
X012124Y015625D03*
X005624Y014500D03*
X004876Y014500D03*
D13*
X009745Y017016D03*
X010060Y017016D03*
X010375Y017016D03*
X010690Y017016D03*
X011005Y017016D03*
D14*
X012147Y017016D03*
X012147Y019181D03*
X008603Y019181D03*
X008603Y017016D03*
D15*
X009509Y018000D03*
X011241Y018000D03*
D16*
X008750Y015874D03*
X008750Y015126D03*
X001875Y013499D03*
X001875Y012751D03*
X010938Y007249D03*
X010938Y006501D03*
X013188Y007376D03*
X013188Y008124D03*
X016000Y013751D03*
X016000Y014499D03*
X005938Y002499D03*
X005938Y001751D03*
D17*
X007625Y014604D02*
X007625Y015396D01*
X007625Y017604D02*
X007625Y018396D01*
X013125Y018229D02*
X013125Y019021D01*
X013125Y016021D02*
X013125Y015229D01*
D18*
X007925Y006500D03*
X007325Y006500D03*
X007075Y003500D03*
X007675Y003500D03*
X008450Y003625D03*
X009050Y003625D03*
X009825Y003625D03*
X010425Y003625D03*
X011200Y003625D03*
X011800Y003625D03*
X012575Y003625D03*
X013175Y003625D03*
X006300Y003250D03*
X005700Y003250D03*
D19*
X006000Y003250D03*
X007375Y003500D03*
X008750Y003625D03*
X010125Y003625D03*
X011500Y003625D03*
X012875Y003625D03*
X007625Y006500D03*
D20*
X004875Y005750D03*
D21*
X004875Y004750D03*
X003875Y004750D03*
X002875Y004750D03*
X002875Y005750D03*
X003875Y005750D03*
D22*
X002063Y005340D03*
X002063Y004160D03*
X002063Y006910D03*
X002063Y008090D03*
X004875Y002840D03*
X004875Y001660D03*
X007063Y001535D03*
X007063Y002715D03*
X008438Y002715D03*
X008438Y001535D03*
X009813Y001535D03*
X009813Y002715D03*
X011188Y002715D03*
X011188Y001535D03*
X012563Y001535D03*
X012563Y002715D03*
X012500Y007660D03*
X012500Y008840D03*
D23*
X012000Y006825D03*
X012000Y004925D03*
D24*
X004090Y003750D03*
X002910Y003750D03*
X002090Y008875D03*
X000910Y008875D03*
D25*
G36*
X004167Y005152D02*
X003915Y005404D01*
X004221Y005710D01*
X004473Y005458D01*
X004167Y005152D01*
G37*
G36*
X004529Y004790D02*
X004277Y005042D01*
X004583Y005348D01*
X004835Y005096D01*
X004529Y004790D01*
G37*
D26*
X011910Y014125D03*
X013090Y014125D03*
X018750Y014215D03*
X018750Y013035D03*
X004038Y014500D03*
X003212Y014500D03*
D27*
X014485Y006716D02*
X014485Y005844D01*
X014485Y004156D02*
X014485Y003284D01*
X016265Y003284D02*
X016265Y004156D01*
X017610Y004156D02*
X017610Y003284D01*
X019390Y003284D02*
X019390Y004156D01*
X019390Y005844D02*
X019390Y006716D01*
X017610Y006716D02*
X017610Y005844D01*
X016265Y005844D02*
X016265Y006716D01*
D28*
X016375Y005000D03*
X017500Y005000D03*
X019500Y005000D03*
X014375Y005000D03*
D29*
X001484Y001484D03*
X001484Y018217D03*
X019201Y018217D03*
X019201Y001484D03*
D30*
X017644Y011404D03*
X016856Y011404D03*
X015081Y011404D03*
X014294Y011404D03*
X014294Y013372D03*
X015081Y013372D03*
X016856Y013372D03*
X017644Y013372D03*
X017644Y017900D03*
X016856Y017900D03*
X015081Y017900D03*
X014294Y017900D03*
X006456Y017900D03*
X005669Y017900D03*
X003894Y017900D03*
X003106Y017900D03*
X003106Y013372D03*
X003894Y013372D03*
X005669Y013372D03*
X006456Y013372D03*
X006456Y011404D03*
X005669Y011404D03*
X003894Y011404D03*
X003106Y011404D03*
D31*
X003500Y011404D03*
X003500Y013372D03*
X006063Y013372D03*
X006063Y011404D03*
X006063Y017900D03*
X003500Y017900D03*
X014688Y017900D03*
X017250Y017900D03*
X017250Y013372D03*
X017250Y011404D03*
X014688Y011404D03*
X014688Y013372D03*
D32*
X014688Y013372D03*
X014688Y011404D03*
X017250Y011404D03*
X017250Y013372D03*
X017250Y017900D03*
X014688Y017900D03*
X006063Y017900D03*
X003500Y017900D03*
X003500Y013372D03*
X003500Y011404D03*
X006063Y011404D03*
X006063Y013372D03*
D33*
X006063Y009238D03*
X003500Y009238D03*
X014688Y009238D03*
X017250Y009238D03*
D34*
X013000Y006682D03*
X013000Y005068D03*
D35*
X011688Y009250D03*
X014188Y010250D03*
X015188Y010250D03*
X016750Y010250D03*
X017750Y010250D03*
X006688Y009250D03*
X006563Y010250D03*
X005563Y010250D03*
X004000Y010250D03*
X003000Y010250D03*
D36*
X009250Y011890D03*
X010375Y011890D03*
X011500Y011890D03*
X011500Y013110D03*
X010375Y013110D03*
X009250Y013110D03*
D37*
X006294Y015375D03*
X006294Y016625D03*
X004956Y016625D03*
X004169Y016625D03*
X004169Y015375D03*
X004956Y015375D03*
X002831Y015375D03*
X002831Y016625D03*
X014456Y016625D03*
X014456Y015375D03*
X015794Y015375D03*
X016581Y015375D03*
X016581Y016625D03*
X015794Y016625D03*
X017919Y016625D03*
X017919Y015375D03*
D38*
X018750Y015331D03*
X018750Y016669D03*
X013125Y016456D03*
X013125Y017794D03*
X007625Y016919D03*
X007625Y015581D03*
X002000Y015331D03*
X002000Y016669D03*
D39*
X005938Y005292D03*
X005938Y004583D03*
D40*
X008125Y017875D03*
X008125Y019125D03*
X012625Y019125D03*
X012625Y017875D03*
M02*
