G75*
G70*
%OFA0B0*%
%FSLAX24Y24*%
%IPPOS*%
%LPD*%
%AMOC8*
5,1,8,0,0,1.08239X$1,22.5*
%
%ADD10C,0.0060*%
%ADD11C,0.0200*%
%ADD12R,0.0700X0.0150*%
%ADD13R,0.0200X0.0550*%
%ADD14C,0.0050*%
%ADD15R,0.0200X0.0200*%
%ADD16C,0.0160*%
%ADD17C,0.0020*%
%ADD18C,0.0040*%
%ADD19R,0.0100X0.1000*%
D10*
X002625Y004250D02*
X002375Y004500D01*
X002375Y006000D01*
X002625Y006250D01*
X003125Y006250D01*
X003375Y006000D01*
X003625Y006250D01*
X004125Y006250D01*
X004375Y006000D01*
X004625Y006250D01*
X005125Y006250D01*
X005375Y006000D01*
X005375Y004500D01*
X005125Y004250D01*
X004625Y004250D01*
X004375Y004500D01*
X004125Y004250D01*
X003625Y004250D01*
X003375Y004500D01*
X003125Y004250D01*
X002625Y004250D01*
X002500Y009750D02*
X004500Y009750D01*
X004500Y010750D01*
X002500Y010750D01*
X002500Y009750D01*
X002800Y010250D02*
X003300Y010250D01*
X003300Y010400D01*
X003300Y010250D02*
X003300Y010100D01*
X003300Y010250D02*
X003700Y010400D01*
X003700Y010100D01*
X003300Y010250D01*
X004250Y010250D01*
X005063Y009750D02*
X005063Y010750D01*
X007063Y010750D01*
X007063Y009750D01*
X005063Y009750D01*
X005313Y010250D02*
X006263Y010250D01*
X006263Y010100D01*
X006263Y010250D02*
X006263Y010400D01*
X006263Y010250D02*
X005863Y010100D01*
X005863Y010400D01*
X006263Y010250D01*
X006763Y010250D01*
X006613Y010150D02*
X006713Y009950D01*
X006633Y010010D01*
X006713Y010050D01*
X006713Y009950D01*
X006513Y009950D02*
X006513Y010050D01*
X006433Y010010D01*
X006513Y009950D01*
X006413Y010150D01*
X003150Y010350D02*
X003050Y010550D01*
X003130Y010490D01*
X003050Y010450D01*
X003050Y010550D01*
X002930Y010490D02*
X002850Y010450D01*
X002850Y010550D01*
X002930Y010490D01*
X002850Y010550D02*
X002950Y010350D01*
X007275Y015900D02*
X007975Y015900D01*
X007975Y017100D01*
X007275Y017100D01*
X007275Y015900D01*
X007625Y016300D02*
X007625Y016450D01*
X007425Y016450D01*
X007425Y016550D01*
X007625Y016450D02*
X007825Y016450D01*
X007625Y016450D02*
X007425Y016850D01*
X007825Y016850D01*
X007625Y016450D01*
X007625Y017000D01*
X012775Y016525D02*
X013475Y016525D01*
X013475Y017725D01*
X012775Y017725D01*
X012775Y016525D01*
X013125Y016925D02*
X013125Y017075D01*
X012925Y017075D01*
X012925Y017175D01*
X013125Y017075D02*
X013325Y017075D01*
X013125Y017075D02*
X012925Y017475D01*
X013325Y017475D01*
X013125Y017075D01*
X013125Y017625D01*
X013688Y010750D02*
X013688Y009750D01*
X015688Y009750D01*
X015688Y010750D01*
X013688Y010750D01*
X013938Y010250D02*
X014888Y010250D01*
X014888Y010100D01*
X014888Y010250D02*
X014888Y010400D01*
X014888Y010250D02*
X014488Y010100D01*
X014488Y010400D01*
X014888Y010250D01*
X015388Y010250D01*
X015238Y010150D02*
X015338Y009950D01*
X015258Y010010D01*
X015338Y010050D01*
X015338Y009950D01*
X015138Y009950D02*
X015138Y010050D01*
X015058Y010010D01*
X015138Y009950D01*
X015038Y010150D01*
X016250Y009750D02*
X018250Y009750D01*
X018250Y010750D01*
X016250Y010750D01*
X016250Y009750D01*
X016550Y010250D02*
X017050Y010250D01*
X017050Y010400D01*
X017050Y010250D02*
X017050Y010100D01*
X017050Y010250D02*
X017450Y010400D01*
X017450Y010100D01*
X017050Y010250D01*
X018000Y010250D01*
X016900Y010350D02*
X016800Y010550D01*
X016880Y010490D01*
X016800Y010450D01*
X016800Y010550D01*
X016680Y010490D02*
X016600Y010450D01*
X016600Y010550D01*
X016680Y010490D01*
X016600Y010550D02*
X016700Y010350D01*
X016375Y006200D02*
X015775Y006200D01*
X015675Y006200D01*
X015675Y006300D01*
X015075Y006300D01*
X015075Y006200D01*
X014975Y006200D01*
X014375Y006200D01*
X014175Y006000D01*
X014175Y005850D01*
X014175Y005500D01*
X014175Y004550D01*
X014175Y004150D01*
X014175Y004000D01*
X014375Y003800D01*
X014975Y003800D01*
X015075Y003800D01*
X015075Y003700D01*
X015675Y003700D01*
X015675Y003800D01*
X015775Y003800D01*
X016375Y003800D01*
X016575Y004000D01*
X016575Y004150D01*
X016575Y004500D01*
X016575Y005500D01*
X016575Y005850D01*
X016575Y006000D01*
X016375Y006200D01*
X016025Y005850D02*
X016027Y005878D01*
X016033Y005905D01*
X016042Y005931D01*
X016055Y005956D01*
X016072Y005979D01*
X016091Y005999D01*
X016113Y006016D01*
X016137Y006030D01*
X016163Y006040D01*
X016190Y006047D01*
X016218Y006050D01*
X016246Y006049D01*
X016273Y006044D01*
X016300Y006035D01*
X016325Y006023D01*
X016348Y006008D01*
X016369Y005989D01*
X016387Y005968D01*
X016402Y005944D01*
X016413Y005918D01*
X016421Y005892D01*
X016425Y005864D01*
X016425Y005836D01*
X016421Y005808D01*
X016413Y005782D01*
X016402Y005756D01*
X016387Y005732D01*
X016369Y005711D01*
X016348Y005692D01*
X016325Y005677D01*
X016300Y005665D01*
X016273Y005656D01*
X016246Y005651D01*
X016218Y005650D01*
X016190Y005653D01*
X016163Y005660D01*
X016137Y005670D01*
X016113Y005684D01*
X016091Y005701D01*
X016072Y005721D01*
X016055Y005744D01*
X016042Y005769D01*
X016033Y005795D01*
X016027Y005822D01*
X016025Y005850D01*
X015875Y005950D02*
X015575Y005950D01*
X015225Y005850D01*
X015175Y005950D02*
X014875Y005950D01*
X014325Y005850D02*
X014327Y005878D01*
X014333Y005905D01*
X014342Y005931D01*
X014355Y005956D01*
X014372Y005979D01*
X014391Y005999D01*
X014413Y006016D01*
X014437Y006030D01*
X014463Y006040D01*
X014490Y006047D01*
X014518Y006050D01*
X014546Y006049D01*
X014573Y006044D01*
X014600Y006035D01*
X014625Y006023D01*
X014648Y006008D01*
X014669Y005989D01*
X014687Y005968D01*
X014702Y005944D01*
X014713Y005918D01*
X014721Y005892D01*
X014725Y005864D01*
X014725Y005836D01*
X014721Y005808D01*
X014713Y005782D01*
X014702Y005756D01*
X014687Y005732D01*
X014669Y005711D01*
X014648Y005692D01*
X014625Y005677D01*
X014600Y005665D01*
X014573Y005656D01*
X014546Y005651D01*
X014518Y005650D01*
X014490Y005653D01*
X014463Y005660D01*
X014437Y005670D01*
X014413Y005684D01*
X014391Y005701D01*
X014372Y005721D01*
X014355Y005744D01*
X014342Y005769D01*
X014333Y005795D01*
X014327Y005822D01*
X014325Y005850D01*
X014525Y005500D02*
X014525Y004500D01*
X014375Y004150D02*
X014377Y004178D01*
X014383Y004205D01*
X014392Y004231D01*
X014405Y004256D01*
X014422Y004279D01*
X014441Y004299D01*
X014463Y004316D01*
X014487Y004330D01*
X014513Y004340D01*
X014540Y004347D01*
X014568Y004350D01*
X014596Y004349D01*
X014623Y004344D01*
X014650Y004335D01*
X014675Y004323D01*
X014698Y004308D01*
X014719Y004289D01*
X014737Y004268D01*
X014752Y004244D01*
X014763Y004218D01*
X014771Y004192D01*
X014775Y004164D01*
X014775Y004136D01*
X014771Y004108D01*
X014763Y004082D01*
X014752Y004056D01*
X014737Y004032D01*
X014719Y004011D01*
X014698Y003992D01*
X014675Y003977D01*
X014650Y003965D01*
X014623Y003956D01*
X014596Y003951D01*
X014568Y003950D01*
X014540Y003953D01*
X014513Y003960D01*
X014487Y003970D01*
X014463Y003984D01*
X014441Y004001D01*
X014422Y004021D01*
X014405Y004044D01*
X014392Y004069D01*
X014383Y004095D01*
X014377Y004122D01*
X014375Y004150D01*
X015275Y005000D02*
X015277Y005020D01*
X015283Y005038D01*
X015292Y005056D01*
X015304Y005071D01*
X015319Y005083D01*
X015337Y005092D01*
X015355Y005098D01*
X015375Y005100D01*
X015395Y005098D01*
X015413Y005092D01*
X015431Y005083D01*
X015446Y005071D01*
X015458Y005056D01*
X015467Y005038D01*
X015473Y005020D01*
X015475Y005000D01*
X015473Y004980D01*
X015467Y004962D01*
X015458Y004944D01*
X015446Y004929D01*
X015431Y004917D01*
X015413Y004908D01*
X015395Y004902D01*
X015375Y004900D01*
X015355Y004902D01*
X015337Y004908D01*
X015319Y004917D01*
X015304Y004929D01*
X015292Y004944D01*
X015283Y004962D01*
X015277Y004980D01*
X015275Y005000D01*
X014675Y005000D02*
X014677Y005052D01*
X014683Y005104D01*
X014693Y005156D01*
X014706Y005206D01*
X014723Y005256D01*
X014744Y005304D01*
X014769Y005350D01*
X014797Y005394D01*
X014828Y005436D01*
X014862Y005476D01*
X014899Y005513D01*
X014939Y005547D01*
X014981Y005578D01*
X015025Y005606D01*
X015071Y005631D01*
X015119Y005652D01*
X015169Y005669D01*
X015219Y005682D01*
X015271Y005692D01*
X015323Y005698D01*
X015375Y005700D01*
X015427Y005698D01*
X015479Y005692D01*
X015531Y005682D01*
X015581Y005669D01*
X015631Y005652D01*
X015679Y005631D01*
X015725Y005606D01*
X015769Y005578D01*
X015811Y005547D01*
X015851Y005513D01*
X015888Y005476D01*
X015922Y005436D01*
X015953Y005394D01*
X015981Y005350D01*
X016006Y005304D01*
X016027Y005256D01*
X016044Y005206D01*
X016057Y005156D01*
X016067Y005104D01*
X016073Y005052D01*
X016075Y005000D01*
X016073Y004948D01*
X016067Y004896D01*
X016057Y004844D01*
X016044Y004794D01*
X016027Y004744D01*
X016006Y004696D01*
X015981Y004650D01*
X015953Y004606D01*
X015922Y004564D01*
X015888Y004524D01*
X015851Y004487D01*
X015811Y004453D01*
X015769Y004422D01*
X015725Y004394D01*
X015679Y004369D01*
X015631Y004348D01*
X015581Y004331D01*
X015531Y004318D01*
X015479Y004308D01*
X015427Y004302D01*
X015375Y004300D01*
X015323Y004302D01*
X015271Y004308D01*
X015219Y004318D01*
X015169Y004331D01*
X015119Y004348D01*
X015071Y004369D01*
X015025Y004394D01*
X014981Y004422D01*
X014939Y004453D01*
X014899Y004487D01*
X014862Y004524D01*
X014828Y004564D01*
X014797Y004606D01*
X014769Y004650D01*
X014744Y004696D01*
X014723Y004744D01*
X014706Y004794D01*
X014693Y004844D01*
X014683Y004896D01*
X014677Y004948D01*
X014675Y005000D01*
X016275Y004500D02*
X016275Y005500D01*
X017300Y005500D02*
X017300Y004500D01*
X017300Y004150D01*
X017300Y004000D01*
X017500Y003800D01*
X018100Y003800D01*
X018200Y003800D01*
X018200Y003700D01*
X018800Y003700D01*
X018800Y003800D01*
X018900Y003800D01*
X019500Y003800D01*
X019700Y004000D01*
X019700Y004150D01*
X019700Y004500D01*
X019700Y005450D01*
X019700Y005850D01*
X019700Y006000D01*
X019500Y006200D01*
X018900Y006200D01*
X018800Y006200D01*
X018800Y006300D01*
X018200Y006300D01*
X018200Y006200D01*
X018100Y006200D01*
X017500Y006200D01*
X017300Y006000D01*
X017300Y005850D01*
X017300Y005500D01*
X017600Y005500D02*
X017600Y004500D01*
X017450Y004150D02*
X017452Y004178D01*
X017458Y004205D01*
X017467Y004231D01*
X017480Y004256D01*
X017497Y004279D01*
X017516Y004299D01*
X017538Y004316D01*
X017562Y004330D01*
X017588Y004340D01*
X017615Y004347D01*
X017643Y004350D01*
X017671Y004349D01*
X017698Y004344D01*
X017725Y004335D01*
X017750Y004323D01*
X017773Y004308D01*
X017794Y004289D01*
X017812Y004268D01*
X017827Y004244D01*
X017838Y004218D01*
X017846Y004192D01*
X017850Y004164D01*
X017850Y004136D01*
X017846Y004108D01*
X017838Y004082D01*
X017827Y004056D01*
X017812Y004032D01*
X017794Y004011D01*
X017773Y003992D01*
X017750Y003977D01*
X017725Y003965D01*
X017698Y003956D01*
X017671Y003951D01*
X017643Y003950D01*
X017615Y003953D01*
X017588Y003960D01*
X017562Y003970D01*
X017538Y003984D01*
X017516Y004001D01*
X017497Y004021D01*
X017480Y004044D01*
X017467Y004069D01*
X017458Y004095D01*
X017452Y004122D01*
X017450Y004150D01*
X018000Y004050D02*
X018300Y004050D01*
X018650Y004150D01*
X018700Y004050D02*
X019000Y004050D01*
X019150Y004150D02*
X019152Y004178D01*
X019158Y004205D01*
X019167Y004231D01*
X019180Y004256D01*
X019197Y004279D01*
X019216Y004299D01*
X019238Y004316D01*
X019262Y004330D01*
X019288Y004340D01*
X019315Y004347D01*
X019343Y004350D01*
X019371Y004349D01*
X019398Y004344D01*
X019425Y004335D01*
X019450Y004323D01*
X019473Y004308D01*
X019494Y004289D01*
X019512Y004268D01*
X019527Y004244D01*
X019538Y004218D01*
X019546Y004192D01*
X019550Y004164D01*
X019550Y004136D01*
X019546Y004108D01*
X019538Y004082D01*
X019527Y004056D01*
X019512Y004032D01*
X019494Y004011D01*
X019473Y003992D01*
X019450Y003977D01*
X019425Y003965D01*
X019398Y003956D01*
X019371Y003951D01*
X019343Y003950D01*
X019315Y003953D01*
X019288Y003960D01*
X019262Y003970D01*
X019238Y003984D01*
X019216Y004001D01*
X019197Y004021D01*
X019180Y004044D01*
X019167Y004069D01*
X019158Y004095D01*
X019152Y004122D01*
X019150Y004150D01*
X019350Y004500D02*
X019350Y005500D01*
X019100Y005850D02*
X019102Y005878D01*
X019108Y005905D01*
X019117Y005931D01*
X019130Y005956D01*
X019147Y005979D01*
X019166Y005999D01*
X019188Y006016D01*
X019212Y006030D01*
X019238Y006040D01*
X019265Y006047D01*
X019293Y006050D01*
X019321Y006049D01*
X019348Y006044D01*
X019375Y006035D01*
X019400Y006023D01*
X019423Y006008D01*
X019444Y005989D01*
X019462Y005968D01*
X019477Y005944D01*
X019488Y005918D01*
X019496Y005892D01*
X019500Y005864D01*
X019500Y005836D01*
X019496Y005808D01*
X019488Y005782D01*
X019477Y005756D01*
X019462Y005732D01*
X019444Y005711D01*
X019423Y005692D01*
X019400Y005677D01*
X019375Y005665D01*
X019348Y005656D01*
X019321Y005651D01*
X019293Y005650D01*
X019265Y005653D01*
X019238Y005660D01*
X019212Y005670D01*
X019188Y005684D01*
X019166Y005701D01*
X019147Y005721D01*
X019130Y005744D01*
X019117Y005769D01*
X019108Y005795D01*
X019102Y005822D01*
X019100Y005850D01*
X018400Y005000D02*
X018402Y005020D01*
X018408Y005038D01*
X018417Y005056D01*
X018429Y005071D01*
X018444Y005083D01*
X018462Y005092D01*
X018480Y005098D01*
X018500Y005100D01*
X018520Y005098D01*
X018538Y005092D01*
X018556Y005083D01*
X018571Y005071D01*
X018583Y005056D01*
X018592Y005038D01*
X018598Y005020D01*
X018600Y005000D01*
X018598Y004980D01*
X018592Y004962D01*
X018583Y004944D01*
X018571Y004929D01*
X018556Y004917D01*
X018538Y004908D01*
X018520Y004902D01*
X018500Y004900D01*
X018480Y004902D01*
X018462Y004908D01*
X018444Y004917D01*
X018429Y004929D01*
X018417Y004944D01*
X018408Y004962D01*
X018402Y004980D01*
X018400Y005000D01*
X017800Y005000D02*
X017802Y005052D01*
X017808Y005104D01*
X017818Y005156D01*
X017831Y005206D01*
X017848Y005256D01*
X017869Y005304D01*
X017894Y005350D01*
X017922Y005394D01*
X017953Y005436D01*
X017987Y005476D01*
X018024Y005513D01*
X018064Y005547D01*
X018106Y005578D01*
X018150Y005606D01*
X018196Y005631D01*
X018244Y005652D01*
X018294Y005669D01*
X018344Y005682D01*
X018396Y005692D01*
X018448Y005698D01*
X018500Y005700D01*
X018552Y005698D01*
X018604Y005692D01*
X018656Y005682D01*
X018706Y005669D01*
X018756Y005652D01*
X018804Y005631D01*
X018850Y005606D01*
X018894Y005578D01*
X018936Y005547D01*
X018976Y005513D01*
X019013Y005476D01*
X019047Y005436D01*
X019078Y005394D01*
X019106Y005350D01*
X019131Y005304D01*
X019152Y005256D01*
X019169Y005206D01*
X019182Y005156D01*
X019192Y005104D01*
X019198Y005052D01*
X019200Y005000D01*
X019198Y004948D01*
X019192Y004896D01*
X019182Y004844D01*
X019169Y004794D01*
X019152Y004744D01*
X019131Y004696D01*
X019106Y004650D01*
X019078Y004606D01*
X019047Y004564D01*
X019013Y004524D01*
X018976Y004487D01*
X018936Y004453D01*
X018894Y004422D01*
X018850Y004394D01*
X018804Y004369D01*
X018756Y004348D01*
X018706Y004331D01*
X018656Y004318D01*
X018604Y004308D01*
X018552Y004302D01*
X018500Y004300D01*
X018448Y004302D01*
X018396Y004308D01*
X018344Y004318D01*
X018294Y004331D01*
X018244Y004348D01*
X018196Y004369D01*
X018150Y004394D01*
X018106Y004422D01*
X018064Y004453D01*
X018024Y004487D01*
X017987Y004524D01*
X017953Y004564D01*
X017922Y004606D01*
X017894Y004650D01*
X017869Y004696D01*
X017848Y004744D01*
X017831Y004794D01*
X017818Y004844D01*
X017808Y004896D01*
X017802Y004948D01*
X017800Y005000D01*
X017450Y005850D02*
X017452Y005878D01*
X017458Y005905D01*
X017467Y005931D01*
X017480Y005956D01*
X017497Y005979D01*
X017516Y005999D01*
X017538Y006016D01*
X017562Y006030D01*
X017588Y006040D01*
X017615Y006047D01*
X017643Y006050D01*
X017671Y006049D01*
X017698Y006044D01*
X017725Y006035D01*
X017750Y006023D01*
X017773Y006008D01*
X017794Y005989D01*
X017812Y005968D01*
X017827Y005944D01*
X017838Y005918D01*
X017846Y005892D01*
X017850Y005864D01*
X017850Y005836D01*
X017846Y005808D01*
X017838Y005782D01*
X017827Y005756D01*
X017812Y005732D01*
X017794Y005711D01*
X017773Y005692D01*
X017750Y005677D01*
X017725Y005665D01*
X017698Y005656D01*
X017671Y005651D01*
X017643Y005650D01*
X017615Y005653D01*
X017588Y005660D01*
X017562Y005670D01*
X017538Y005684D01*
X017516Y005701D01*
X017497Y005721D01*
X017480Y005744D01*
X017467Y005769D01*
X017458Y005795D01*
X017452Y005822D01*
X017450Y005850D01*
X016025Y004150D02*
X016027Y004178D01*
X016033Y004205D01*
X016042Y004231D01*
X016055Y004256D01*
X016072Y004279D01*
X016091Y004299D01*
X016113Y004316D01*
X016137Y004330D01*
X016163Y004340D01*
X016190Y004347D01*
X016218Y004350D01*
X016246Y004349D01*
X016273Y004344D01*
X016300Y004335D01*
X016325Y004323D01*
X016348Y004308D01*
X016369Y004289D01*
X016387Y004268D01*
X016402Y004244D01*
X016413Y004218D01*
X016421Y004192D01*
X016425Y004164D01*
X016425Y004136D01*
X016421Y004108D01*
X016413Y004082D01*
X016402Y004056D01*
X016387Y004032D01*
X016369Y004011D01*
X016348Y003992D01*
X016325Y003977D01*
X016300Y003965D01*
X016273Y003956D01*
X016246Y003951D01*
X016218Y003950D01*
X016190Y003953D01*
X016163Y003960D01*
X016137Y003970D01*
X016113Y003984D01*
X016091Y004001D01*
X016072Y004021D01*
X016055Y004044D01*
X016042Y004069D01*
X016033Y004095D01*
X016027Y004122D01*
X016025Y004150D01*
X012650Y004675D02*
X012650Y007075D01*
X012648Y007125D01*
X012642Y007174D01*
X012633Y007223D01*
X012620Y007271D01*
X012603Y007318D01*
X012583Y007363D01*
X012559Y007407D01*
X012532Y007449D01*
X012501Y007489D01*
X012468Y007526D01*
X012432Y007560D01*
X012394Y007592D01*
X012353Y007621D01*
X012311Y007646D01*
X012266Y007668D01*
X012220Y007687D01*
X012172Y007702D01*
X012124Y007713D01*
X012075Y007721D01*
X012025Y007725D01*
X011975Y007725D01*
X011925Y007721D01*
X011876Y007713D01*
X011828Y007702D01*
X011780Y007687D01*
X011734Y007668D01*
X011689Y007646D01*
X011647Y007621D01*
X011606Y007592D01*
X011568Y007560D01*
X011532Y007526D01*
X011499Y007489D01*
X011468Y007449D01*
X011441Y007407D01*
X011417Y007363D01*
X011397Y007318D01*
X011380Y007271D01*
X011367Y007223D01*
X011358Y007174D01*
X011352Y007125D01*
X011350Y007075D01*
X011350Y004675D01*
X011352Y004625D01*
X011358Y004576D01*
X011367Y004527D01*
X011380Y004479D01*
X011397Y004432D01*
X011417Y004387D01*
X011441Y004343D01*
X011468Y004301D01*
X011499Y004261D01*
X011532Y004224D01*
X011568Y004190D01*
X011606Y004158D01*
X011647Y004129D01*
X011689Y004104D01*
X011734Y004082D01*
X011780Y004063D01*
X011828Y004048D01*
X011876Y004037D01*
X011925Y004029D01*
X011975Y004025D01*
X012025Y004025D01*
X012075Y004029D01*
X012124Y004037D01*
X012172Y004048D01*
X012220Y004063D01*
X012266Y004082D01*
X012311Y004104D01*
X012353Y004129D01*
X012394Y004158D01*
X012432Y004190D01*
X012468Y004224D01*
X012501Y004261D01*
X012532Y004301D01*
X012559Y004343D01*
X012583Y004387D01*
X012603Y004432D01*
X012620Y004479D01*
X012633Y004527D01*
X012642Y004576D01*
X012648Y004625D01*
X012650Y004675D01*
X012000Y005375D02*
X012000Y005625D01*
X011700Y005625D01*
X011700Y005775D02*
X011700Y005975D01*
X012300Y005975D01*
X012300Y005775D01*
X011700Y005775D01*
X012000Y005625D02*
X012300Y005625D01*
X012300Y006125D02*
X012000Y006125D01*
X012000Y006375D01*
X012000Y006125D02*
X011700Y006125D01*
D11*
X007625Y015000D02*
X007625Y015350D01*
X007625Y017650D02*
X007625Y018000D01*
X013125Y018275D02*
X013125Y018625D01*
X013125Y015975D02*
X013125Y015625D01*
D12*
X013125Y016750D03*
X007625Y016125D03*
D13*
X007625Y015625D03*
X007625Y017375D03*
X013125Y018000D03*
X013125Y016250D03*
D14*
X013310Y018490D02*
X016065Y018490D01*
X016065Y010616D01*
X013310Y010616D01*
X013310Y018490D01*
X013269Y019450D02*
X013419Y019600D01*
X013419Y019900D01*
X013579Y019900D02*
X013804Y019900D01*
X013879Y019825D01*
X013879Y019525D01*
X013804Y019450D01*
X013579Y019450D01*
X013579Y019900D01*
X013119Y019900D02*
X013119Y019600D01*
X013269Y019450D01*
X014040Y019450D02*
X014340Y019450D01*
X014190Y019450D02*
X014190Y019900D01*
X014040Y019750D01*
X015872Y018490D02*
X018628Y018490D01*
X018628Y010616D01*
X015872Y010616D01*
X015872Y018490D01*
X010343Y019398D02*
X010343Y020185D01*
X007590Y019825D02*
X007515Y019900D01*
X007365Y019900D01*
X007290Y019825D01*
X007129Y019825D02*
X007129Y019525D01*
X007054Y019450D01*
X006829Y019450D01*
X006829Y019900D01*
X007054Y019900D01*
X007129Y019825D01*
X007290Y019450D02*
X007590Y019750D01*
X007590Y019825D01*
X007590Y019450D02*
X007290Y019450D01*
X006669Y019600D02*
X006669Y019900D01*
X006369Y019900D02*
X006369Y019600D01*
X006519Y019450D01*
X006669Y019600D01*
X007440Y018490D02*
X004685Y018490D01*
X004685Y010616D01*
X007440Y010616D01*
X007440Y018490D01*
X004878Y018490D02*
X002122Y018490D01*
X002122Y010616D01*
X004878Y010616D01*
X004878Y018490D01*
X003110Y012978D02*
X003114Y013123D01*
X003124Y013267D01*
X003142Y013411D01*
X003167Y013554D01*
X003198Y013696D01*
X003237Y013835D01*
X003283Y013973D01*
X003335Y014108D01*
X003394Y014241D01*
X003459Y014370D01*
X003530Y014496D01*
X003608Y014619D01*
X003691Y014737D01*
X003780Y014851D01*
X003875Y014961D01*
X003975Y015066D01*
X004080Y015166D01*
X004190Y015261D01*
X004304Y015350D01*
X004422Y015433D01*
X004545Y015511D01*
X004671Y015582D01*
X004800Y015647D01*
X004933Y015706D01*
X005068Y015758D01*
X005206Y015804D01*
X005345Y015843D01*
X005487Y015874D01*
X005630Y015899D01*
X005774Y015917D01*
X005918Y015927D01*
X006063Y015931D01*
X006208Y015927D01*
X006352Y015917D01*
X006496Y015899D01*
X006639Y015874D01*
X006781Y015843D01*
X006920Y015804D01*
X007058Y015758D01*
X007193Y015706D01*
X007326Y015647D01*
X007455Y015582D01*
X007581Y015511D01*
X007704Y015433D01*
X007822Y015350D01*
X007936Y015261D01*
X008046Y015166D01*
X008151Y015066D01*
X008251Y014961D01*
X008346Y014851D01*
X008435Y014737D01*
X008518Y014619D01*
X008596Y014496D01*
X008667Y014370D01*
X008732Y014241D01*
X008791Y014108D01*
X008843Y013973D01*
X008889Y013835D01*
X008928Y013696D01*
X008959Y013554D01*
X008984Y013411D01*
X009002Y013267D01*
X009012Y013123D01*
X009016Y012978D01*
X009012Y012833D01*
X009002Y012689D01*
X008984Y012545D01*
X008959Y012402D01*
X008928Y012260D01*
X008889Y012121D01*
X008843Y011983D01*
X008791Y011848D01*
X008732Y011715D01*
X008667Y011586D01*
X008596Y011460D01*
X008518Y011337D01*
X008435Y011219D01*
X008346Y011105D01*
X008251Y010995D01*
X008151Y010890D01*
X008046Y010790D01*
X007936Y010695D01*
X007822Y010606D01*
X007704Y010523D01*
X007581Y010445D01*
X007455Y010374D01*
X007326Y010309D01*
X007193Y010250D01*
X007058Y010198D01*
X006920Y010152D01*
X006781Y010113D01*
X006639Y010082D01*
X006496Y010057D01*
X006352Y010039D01*
X006208Y010029D01*
X006063Y010025D01*
X005918Y010029D01*
X005774Y010039D01*
X005630Y010057D01*
X005487Y010082D01*
X005345Y010113D01*
X005206Y010152D01*
X005068Y010198D01*
X004933Y010250D01*
X004800Y010309D01*
X004671Y010374D01*
X004545Y010445D01*
X004422Y010523D01*
X004304Y010606D01*
X004190Y010695D01*
X004080Y010790D01*
X003975Y010890D01*
X003875Y010995D01*
X003780Y011105D01*
X003691Y011219D01*
X003608Y011337D01*
X003530Y011460D01*
X003459Y011586D01*
X003394Y011715D01*
X003335Y011848D01*
X003283Y011983D01*
X003237Y012121D01*
X003198Y012260D01*
X003167Y012402D01*
X003142Y012545D01*
X003124Y012689D01*
X003114Y012833D01*
X003110Y012978D01*
X000547Y012978D02*
X000551Y013123D01*
X000561Y013267D01*
X000579Y013411D01*
X000604Y013554D01*
X000635Y013696D01*
X000674Y013835D01*
X000720Y013973D01*
X000772Y014108D01*
X000831Y014241D01*
X000896Y014370D01*
X000967Y014496D01*
X001045Y014619D01*
X001128Y014737D01*
X001217Y014851D01*
X001312Y014961D01*
X001412Y015066D01*
X001517Y015166D01*
X001627Y015261D01*
X001741Y015350D01*
X001859Y015433D01*
X001982Y015511D01*
X002108Y015582D01*
X002237Y015647D01*
X002370Y015706D01*
X002505Y015758D01*
X002643Y015804D01*
X002782Y015843D01*
X002924Y015874D01*
X003067Y015899D01*
X003211Y015917D01*
X003355Y015927D01*
X003500Y015931D01*
X003645Y015927D01*
X003789Y015917D01*
X003933Y015899D01*
X004076Y015874D01*
X004218Y015843D01*
X004357Y015804D01*
X004495Y015758D01*
X004630Y015706D01*
X004763Y015647D01*
X004892Y015582D01*
X005018Y015511D01*
X005141Y015433D01*
X005259Y015350D01*
X005373Y015261D01*
X005483Y015166D01*
X005588Y015066D01*
X005688Y014961D01*
X005783Y014851D01*
X005872Y014737D01*
X005955Y014619D01*
X006033Y014496D01*
X006104Y014370D01*
X006169Y014241D01*
X006228Y014108D01*
X006280Y013973D01*
X006326Y013835D01*
X006365Y013696D01*
X006396Y013554D01*
X006421Y013411D01*
X006439Y013267D01*
X006449Y013123D01*
X006453Y012978D01*
X006449Y012833D01*
X006439Y012689D01*
X006421Y012545D01*
X006396Y012402D01*
X006365Y012260D01*
X006326Y012121D01*
X006280Y011983D01*
X006228Y011848D01*
X006169Y011715D01*
X006104Y011586D01*
X006033Y011460D01*
X005955Y011337D01*
X005872Y011219D01*
X005783Y011105D01*
X005688Y010995D01*
X005588Y010890D01*
X005483Y010790D01*
X005373Y010695D01*
X005259Y010606D01*
X005141Y010523D01*
X005018Y010445D01*
X004892Y010374D01*
X004763Y010309D01*
X004630Y010250D01*
X004495Y010198D01*
X004357Y010152D01*
X004218Y010113D01*
X004076Y010082D01*
X003933Y010057D01*
X003789Y010039D01*
X003645Y010029D01*
X003500Y010025D01*
X003355Y010029D01*
X003211Y010039D01*
X003067Y010057D01*
X002924Y010082D01*
X002782Y010113D01*
X002643Y010152D01*
X002505Y010198D01*
X002370Y010250D01*
X002237Y010309D01*
X002108Y010374D01*
X001982Y010445D01*
X001859Y010523D01*
X001741Y010606D01*
X001627Y010695D01*
X001517Y010790D01*
X001412Y010890D01*
X001312Y010995D01*
X001217Y011105D01*
X001128Y011219D01*
X001045Y011337D01*
X000967Y011460D01*
X000896Y011586D01*
X000831Y011715D01*
X000772Y011848D01*
X000720Y011983D01*
X000674Y012121D01*
X000635Y012260D01*
X000604Y012402D01*
X000579Y012545D01*
X000561Y012689D01*
X000551Y012833D01*
X000547Y012978D01*
X002328Y012575D02*
X002328Y012125D01*
X002328Y012350D02*
X002628Y012350D01*
X002628Y012575D02*
X002628Y012125D01*
X002789Y012125D02*
X003089Y012125D01*
X003249Y012125D02*
X003549Y012425D01*
X003549Y012500D01*
X003474Y012575D01*
X003324Y012575D01*
X003249Y012500D01*
X003249Y012125D02*
X003549Y012125D01*
X003709Y012125D02*
X003784Y012125D01*
X003784Y012200D01*
X003709Y012200D01*
X003709Y012125D01*
X003940Y012125D02*
X004240Y012425D01*
X004240Y012500D01*
X004165Y012575D01*
X004015Y012575D01*
X003940Y012500D01*
X003940Y012125D02*
X004240Y012125D01*
X005213Y012175D02*
X005213Y012625D01*
X005213Y012400D02*
X005513Y012400D01*
X005513Y012625D02*
X005513Y012175D01*
X005673Y012175D02*
X005973Y012175D01*
X006133Y012175D02*
X006434Y012475D01*
X006434Y012550D01*
X006358Y012625D01*
X006208Y012625D01*
X006133Y012550D01*
X006133Y012175D02*
X006434Y012175D01*
X006594Y012175D02*
X006669Y012175D01*
X006669Y012250D01*
X006594Y012250D01*
X006594Y012175D01*
X006824Y012175D02*
X007124Y012175D01*
X006974Y012175D02*
X006974Y012625D01*
X006824Y012475D01*
X005673Y012625D02*
X005673Y012175D01*
X002789Y012125D02*
X002789Y012575D01*
X002797Y006950D02*
X002947Y006950D01*
X002872Y006950D02*
X002872Y006500D01*
X002797Y006500D02*
X002947Y006500D01*
X003104Y006575D02*
X003179Y006500D01*
X003329Y006500D01*
X003404Y006575D01*
X003404Y006650D01*
X003329Y006725D01*
X003179Y006725D01*
X003104Y006800D01*
X003104Y006875D01*
X003179Y006950D01*
X003329Y006950D01*
X003404Y006875D01*
X003565Y006950D02*
X003790Y006950D01*
X003865Y006875D01*
X003865Y006725D01*
X003790Y006650D01*
X003565Y006650D01*
X003565Y006500D02*
X003565Y006950D01*
X004690Y006725D02*
X004840Y006875D01*
X004840Y006425D01*
X004690Y006425D02*
X004990Y006425D01*
X002140Y004975D02*
X001990Y004900D01*
X001840Y004750D01*
X002065Y004750D01*
X002140Y004675D01*
X002140Y004600D01*
X002065Y004525D01*
X001915Y004525D01*
X001840Y004600D01*
X001840Y004750D01*
X010288Y004884D02*
X010588Y004884D01*
X010748Y004884D02*
X011048Y004884D01*
X010898Y004884D02*
X010898Y005335D01*
X010748Y005184D01*
X010588Y005259D02*
X010588Y005335D01*
X010288Y005335D01*
X010588Y005259D02*
X010288Y004959D01*
X010288Y004884D01*
X014300Y003390D02*
X014525Y003165D01*
X014525Y003465D01*
X014750Y003390D02*
X014300Y003390D01*
X015700Y002600D02*
X015700Y002525D01*
X015775Y002450D01*
X015925Y002450D01*
X016000Y002375D01*
X016000Y002300D01*
X015925Y002225D01*
X015775Y002225D01*
X015700Y002300D01*
X015700Y002600D02*
X015775Y002675D01*
X015925Y002675D01*
X016000Y002600D01*
X016160Y002600D02*
X016235Y002675D01*
X016386Y002675D01*
X016461Y002600D01*
X016461Y002525D01*
X016386Y002450D01*
X016461Y002375D01*
X016461Y002300D01*
X016386Y002225D01*
X016235Y002225D01*
X016160Y002300D01*
X016311Y002450D02*
X016386Y002450D01*
X016450Y003165D02*
X016150Y003465D01*
X016075Y003465D01*
X016000Y003390D01*
X016000Y003240D01*
X016075Y003165D01*
X016450Y003165D02*
X016450Y003465D01*
X017375Y003475D02*
X017825Y003475D01*
X017825Y003325D02*
X017825Y003625D01*
X017525Y003325D02*
X017375Y003475D01*
X017929Y002950D02*
X017929Y002875D01*
X018004Y002800D01*
X018154Y002800D01*
X018229Y002725D01*
X018229Y002650D01*
X018154Y002575D01*
X018004Y002575D01*
X017929Y002650D01*
X017929Y002950D02*
X018004Y003025D01*
X018154Y003025D01*
X018229Y002950D01*
X018390Y002875D02*
X018540Y003025D01*
X018540Y002575D01*
X018390Y002575D02*
X018690Y002575D01*
X019200Y003225D02*
X019125Y003300D01*
X019125Y003450D01*
X019200Y003525D01*
X019275Y003525D01*
X019350Y003450D01*
X019425Y003525D01*
X019500Y003525D01*
X019575Y003450D01*
X019575Y003300D01*
X019500Y003225D01*
X019350Y003375D02*
X019350Y003450D01*
X016500Y006265D02*
X016500Y006565D01*
X016500Y006415D02*
X016050Y006415D01*
X016200Y006265D01*
X017425Y006500D02*
X017500Y006425D01*
X017425Y006500D02*
X017425Y006650D01*
X017500Y006725D01*
X017575Y006725D01*
X017875Y006425D01*
X017875Y006725D01*
X019125Y006650D02*
X019350Y006425D01*
X019350Y006725D01*
X019575Y006650D02*
X019125Y006650D01*
X014750Y006590D02*
X014750Y006440D01*
X014675Y006365D01*
X014525Y006515D02*
X014525Y006590D01*
X014600Y006665D01*
X014675Y006665D01*
X014750Y006590D01*
X014525Y006590D02*
X014450Y006665D01*
X014375Y006665D01*
X014300Y006590D01*
X014300Y006440D01*
X014375Y006365D01*
X014473Y012175D02*
X014173Y012175D01*
X014173Y012625D01*
X014013Y012625D02*
X014013Y012175D01*
X014013Y012400D02*
X013713Y012400D01*
X013713Y012175D02*
X013713Y012625D01*
X014633Y012475D02*
X014783Y012625D01*
X014783Y012175D01*
X014633Y012175D02*
X014934Y012175D01*
X015094Y012175D02*
X015169Y012175D01*
X015169Y012250D01*
X015094Y012250D01*
X015094Y012175D01*
X015324Y012175D02*
X015624Y012175D01*
X015474Y012175D02*
X015474Y012625D01*
X015324Y012475D01*
X011735Y012978D02*
X011739Y013123D01*
X011749Y013267D01*
X011767Y013411D01*
X011792Y013554D01*
X011823Y013696D01*
X011862Y013835D01*
X011908Y013973D01*
X011960Y014108D01*
X012019Y014241D01*
X012084Y014370D01*
X012155Y014496D01*
X012233Y014619D01*
X012316Y014737D01*
X012405Y014851D01*
X012500Y014961D01*
X012600Y015066D01*
X012705Y015166D01*
X012815Y015261D01*
X012929Y015350D01*
X013047Y015433D01*
X013170Y015511D01*
X013296Y015582D01*
X013425Y015647D01*
X013558Y015706D01*
X013693Y015758D01*
X013831Y015804D01*
X013970Y015843D01*
X014112Y015874D01*
X014255Y015899D01*
X014399Y015917D01*
X014543Y015927D01*
X014688Y015931D01*
X014833Y015927D01*
X014977Y015917D01*
X015121Y015899D01*
X015264Y015874D01*
X015406Y015843D01*
X015545Y015804D01*
X015683Y015758D01*
X015818Y015706D01*
X015951Y015647D01*
X016080Y015582D01*
X016206Y015511D01*
X016329Y015433D01*
X016447Y015350D01*
X016561Y015261D01*
X016671Y015166D01*
X016776Y015066D01*
X016876Y014961D01*
X016971Y014851D01*
X017060Y014737D01*
X017143Y014619D01*
X017221Y014496D01*
X017292Y014370D01*
X017357Y014241D01*
X017416Y014108D01*
X017468Y013973D01*
X017514Y013835D01*
X017553Y013696D01*
X017584Y013554D01*
X017609Y013411D01*
X017627Y013267D01*
X017637Y013123D01*
X017641Y012978D01*
X017637Y012833D01*
X017627Y012689D01*
X017609Y012545D01*
X017584Y012402D01*
X017553Y012260D01*
X017514Y012121D01*
X017468Y011983D01*
X017416Y011848D01*
X017357Y011715D01*
X017292Y011586D01*
X017221Y011460D01*
X017143Y011337D01*
X017060Y011219D01*
X016971Y011105D01*
X016876Y010995D01*
X016776Y010890D01*
X016671Y010790D01*
X016561Y010695D01*
X016447Y010606D01*
X016329Y010523D01*
X016206Y010445D01*
X016080Y010374D01*
X015951Y010309D01*
X015818Y010250D01*
X015683Y010198D01*
X015545Y010152D01*
X015406Y010113D01*
X015264Y010082D01*
X015121Y010057D01*
X014977Y010039D01*
X014833Y010029D01*
X014688Y010025D01*
X014543Y010029D01*
X014399Y010039D01*
X014255Y010057D01*
X014112Y010082D01*
X013970Y010113D01*
X013831Y010152D01*
X013693Y010198D01*
X013558Y010250D01*
X013425Y010309D01*
X013296Y010374D01*
X013170Y010445D01*
X013047Y010523D01*
X012929Y010606D01*
X012815Y010695D01*
X012705Y010790D01*
X012600Y010890D01*
X012500Y010995D01*
X012405Y011105D01*
X012316Y011219D01*
X012233Y011337D01*
X012155Y011460D01*
X012084Y011586D01*
X012019Y011715D01*
X011960Y011848D01*
X011908Y011983D01*
X011862Y012121D01*
X011823Y012260D01*
X011792Y012402D01*
X011767Y012545D01*
X011749Y012689D01*
X011739Y012833D01*
X011735Y012978D01*
X016078Y012575D02*
X016078Y012125D01*
X016078Y012350D02*
X016378Y012350D01*
X016378Y012575D02*
X016378Y012125D01*
X016539Y012125D02*
X016839Y012125D01*
X016999Y012125D02*
X017299Y012125D01*
X017149Y012125D02*
X017149Y012575D01*
X016999Y012425D01*
X017459Y012200D02*
X017534Y012200D01*
X017534Y012125D01*
X017459Y012125D01*
X017459Y012200D01*
X017690Y012125D02*
X017990Y012425D01*
X017990Y012500D01*
X017915Y012575D01*
X017765Y012575D01*
X017690Y012500D01*
X017690Y012125D02*
X017990Y012125D01*
X014297Y012978D02*
X014301Y013123D01*
X014311Y013267D01*
X014329Y013411D01*
X014354Y013554D01*
X014385Y013696D01*
X014424Y013835D01*
X014470Y013973D01*
X014522Y014108D01*
X014581Y014241D01*
X014646Y014370D01*
X014717Y014496D01*
X014795Y014619D01*
X014878Y014737D01*
X014967Y014851D01*
X015062Y014961D01*
X015162Y015066D01*
X015267Y015166D01*
X015377Y015261D01*
X015491Y015350D01*
X015609Y015433D01*
X015732Y015511D01*
X015858Y015582D01*
X015987Y015647D01*
X016120Y015706D01*
X016255Y015758D01*
X016393Y015804D01*
X016532Y015843D01*
X016674Y015874D01*
X016817Y015899D01*
X016961Y015917D01*
X017105Y015927D01*
X017250Y015931D01*
X017395Y015927D01*
X017539Y015917D01*
X017683Y015899D01*
X017826Y015874D01*
X017968Y015843D01*
X018107Y015804D01*
X018245Y015758D01*
X018380Y015706D01*
X018513Y015647D01*
X018642Y015582D01*
X018768Y015511D01*
X018891Y015433D01*
X019009Y015350D01*
X019123Y015261D01*
X019233Y015166D01*
X019338Y015066D01*
X019438Y014961D01*
X019533Y014851D01*
X019622Y014737D01*
X019705Y014619D01*
X019783Y014496D01*
X019854Y014370D01*
X019919Y014241D01*
X019978Y014108D01*
X020030Y013973D01*
X020076Y013835D01*
X020115Y013696D01*
X020146Y013554D01*
X020171Y013411D01*
X020189Y013267D01*
X020199Y013123D01*
X020203Y012978D01*
X020199Y012833D01*
X020189Y012689D01*
X020171Y012545D01*
X020146Y012402D01*
X020115Y012260D01*
X020076Y012121D01*
X020030Y011983D01*
X019978Y011848D01*
X019919Y011715D01*
X019854Y011586D01*
X019783Y011460D01*
X019705Y011337D01*
X019622Y011219D01*
X019533Y011105D01*
X019438Y010995D01*
X019338Y010890D01*
X019233Y010790D01*
X019123Y010695D01*
X019009Y010606D01*
X018891Y010523D01*
X018768Y010445D01*
X018642Y010374D01*
X018513Y010309D01*
X018380Y010250D01*
X018245Y010198D01*
X018107Y010152D01*
X017968Y010113D01*
X017826Y010082D01*
X017683Y010057D01*
X017539Y010039D01*
X017395Y010029D01*
X017250Y010025D01*
X017105Y010029D01*
X016961Y010039D01*
X016817Y010057D01*
X016674Y010082D01*
X016532Y010113D01*
X016393Y010152D01*
X016255Y010198D01*
X016120Y010250D01*
X015987Y010309D01*
X015858Y010374D01*
X015732Y010445D01*
X015609Y010523D01*
X015491Y010606D01*
X015377Y010695D01*
X015267Y010790D01*
X015162Y010890D01*
X015062Y010995D01*
X014967Y011105D01*
X014878Y011219D01*
X014795Y011337D01*
X014717Y011460D01*
X014646Y011586D01*
X014581Y011715D01*
X014522Y011848D01*
X014470Y011983D01*
X014424Y012121D01*
X014385Y012260D01*
X014354Y012402D01*
X014329Y012545D01*
X014311Y012689D01*
X014301Y012833D01*
X014297Y012978D01*
X016539Y012575D02*
X016539Y012125D01*
D15*
X004875Y005750D03*
X004875Y004750D03*
X003875Y004750D03*
X002875Y004750D03*
X002875Y005750D03*
X003875Y005750D03*
D16*
X011150Y004675D02*
X011150Y007075D01*
X011152Y007132D01*
X011158Y007188D01*
X011167Y007244D01*
X011180Y007300D01*
X011197Y007354D01*
X011217Y007407D01*
X011241Y007458D01*
X011269Y007508D01*
X011299Y007556D01*
X011333Y007602D01*
X011370Y007645D01*
X011409Y007686D01*
X011451Y007724D01*
X011496Y007759D01*
X011543Y007791D01*
X011592Y007820D01*
X011642Y007846D01*
X011695Y007868D01*
X011748Y007887D01*
X011803Y007902D01*
X011859Y007913D01*
X011915Y007921D01*
X011972Y007925D01*
X012028Y007925D01*
X012085Y007921D01*
X012141Y007913D01*
X012197Y007902D01*
X012252Y007887D01*
X012305Y007868D01*
X012358Y007846D01*
X012408Y007820D01*
X012457Y007791D01*
X012504Y007759D01*
X012549Y007724D01*
X012591Y007686D01*
X012630Y007645D01*
X012667Y007602D01*
X012701Y007556D01*
X012731Y007508D01*
X012759Y007458D01*
X012783Y007407D01*
X012803Y007354D01*
X012820Y007300D01*
X012833Y007244D01*
X012842Y007188D01*
X012848Y007132D01*
X012850Y007075D01*
X012850Y004675D01*
X012848Y004618D01*
X012842Y004562D01*
X012833Y004506D01*
X012820Y004450D01*
X012803Y004396D01*
X012783Y004343D01*
X012759Y004292D01*
X012731Y004242D01*
X012701Y004194D01*
X012667Y004148D01*
X012630Y004105D01*
X012591Y004064D01*
X012549Y004026D01*
X012504Y003991D01*
X012457Y003959D01*
X012408Y003930D01*
X012358Y003904D01*
X012305Y003882D01*
X012252Y003863D01*
X012197Y003848D01*
X012141Y003837D01*
X012085Y003829D01*
X012028Y003825D01*
X011972Y003825D01*
X011915Y003829D01*
X011859Y003837D01*
X011803Y003848D01*
X011748Y003863D01*
X011695Y003882D01*
X011642Y003904D01*
X011592Y003930D01*
X011543Y003959D01*
X011496Y003991D01*
X011451Y004026D01*
X011409Y004064D01*
X011370Y004105D01*
X011333Y004148D01*
X011299Y004194D01*
X011269Y004242D01*
X011241Y004292D01*
X011217Y004343D01*
X011197Y004396D01*
X011180Y004450D01*
X011167Y004506D01*
X011158Y004562D01*
X011152Y004618D01*
X011150Y004675D01*
D17*
X014175Y004550D02*
X014275Y004550D01*
X014275Y005500D01*
X014175Y005500D01*
X014875Y005500D02*
X014875Y004500D01*
X015875Y004500D01*
X015875Y005500D01*
X014875Y005500D01*
X015125Y005000D02*
X015127Y005031D01*
X015133Y005062D01*
X015143Y005092D01*
X015156Y005120D01*
X015173Y005147D01*
X015193Y005171D01*
X015216Y005193D01*
X015241Y005211D01*
X015269Y005226D01*
X015298Y005238D01*
X015328Y005246D01*
X015359Y005250D01*
X015391Y005250D01*
X015422Y005246D01*
X015452Y005238D01*
X015481Y005226D01*
X015509Y005211D01*
X015534Y005193D01*
X015557Y005171D01*
X015577Y005147D01*
X015594Y005120D01*
X015607Y005092D01*
X015617Y005062D01*
X015623Y005031D01*
X015625Y005000D01*
X015623Y004969D01*
X015617Y004938D01*
X015607Y004908D01*
X015594Y004880D01*
X015577Y004853D01*
X015557Y004829D01*
X015534Y004807D01*
X015509Y004789D01*
X015481Y004774D01*
X015452Y004762D01*
X015422Y004754D01*
X015391Y004750D01*
X015359Y004750D01*
X015328Y004754D01*
X015298Y004762D01*
X015269Y004774D01*
X015241Y004789D01*
X015216Y004807D01*
X015193Y004829D01*
X015173Y004853D01*
X015156Y004880D01*
X015143Y004908D01*
X015133Y004938D01*
X015127Y004969D01*
X015125Y005000D01*
X016475Y004500D02*
X016575Y004500D01*
X016475Y004500D02*
X016475Y005500D01*
X016575Y005500D01*
X017300Y005500D02*
X017400Y005500D01*
X017400Y004500D01*
X017300Y004500D01*
X018000Y004500D02*
X018000Y005500D01*
X019000Y005500D01*
X019000Y004500D01*
X018000Y004500D01*
X018250Y005000D02*
X018252Y005031D01*
X018258Y005062D01*
X018268Y005092D01*
X018281Y005120D01*
X018298Y005147D01*
X018318Y005171D01*
X018341Y005193D01*
X018366Y005211D01*
X018394Y005226D01*
X018423Y005238D01*
X018453Y005246D01*
X018484Y005250D01*
X018516Y005250D01*
X018547Y005246D01*
X018577Y005238D01*
X018606Y005226D01*
X018634Y005211D01*
X018659Y005193D01*
X018682Y005171D01*
X018702Y005147D01*
X018719Y005120D01*
X018732Y005092D01*
X018742Y005062D01*
X018748Y005031D01*
X018750Y005000D01*
X018748Y004969D01*
X018742Y004938D01*
X018732Y004908D01*
X018719Y004880D01*
X018702Y004853D01*
X018682Y004829D01*
X018659Y004807D01*
X018634Y004789D01*
X018606Y004774D01*
X018577Y004762D01*
X018547Y004754D01*
X018516Y004750D01*
X018484Y004750D01*
X018453Y004754D01*
X018423Y004762D01*
X018394Y004774D01*
X018366Y004789D01*
X018341Y004807D01*
X018318Y004829D01*
X018298Y004853D01*
X018281Y004880D01*
X018268Y004908D01*
X018258Y004938D01*
X018252Y004969D01*
X018250Y005000D01*
X019600Y005450D02*
X019600Y004500D01*
X019700Y004500D01*
X019700Y005450D02*
X019600Y005450D01*
D18*
X017925Y015270D02*
X017618Y015270D01*
X017925Y015577D01*
X017925Y015654D01*
X017848Y015730D01*
X017695Y015730D01*
X017618Y015654D01*
X017464Y015347D02*
X017464Y015270D01*
X017388Y015270D01*
X017388Y015347D01*
X017464Y015347D01*
X017234Y015270D02*
X016927Y015270D01*
X017081Y015270D02*
X017081Y015730D01*
X016927Y015577D01*
X016774Y015654D02*
X016697Y015730D01*
X016544Y015730D01*
X016467Y015654D01*
X016467Y015577D01*
X016544Y015500D01*
X016697Y015500D01*
X016774Y015423D01*
X016774Y015347D01*
X016697Y015270D01*
X016544Y015270D01*
X016467Y015347D01*
X015362Y015270D02*
X015055Y015270D01*
X014902Y015270D02*
X014825Y015270D01*
X014825Y015347D01*
X014902Y015347D01*
X014902Y015270D01*
X014672Y015270D02*
X014365Y015270D01*
X014518Y015270D02*
X014518Y015730D01*
X014365Y015577D01*
X014211Y015654D02*
X014135Y015730D01*
X013981Y015730D01*
X013904Y015654D01*
X013904Y015577D01*
X013981Y015500D01*
X014135Y015500D01*
X014211Y015423D01*
X014211Y015347D01*
X014135Y015270D01*
X013981Y015270D01*
X013904Y015347D01*
X015055Y015577D02*
X015209Y015730D01*
X015209Y015270D01*
X006737Y015270D02*
X006430Y015270D01*
X006277Y015270D02*
X006200Y015270D01*
X006200Y015347D01*
X006277Y015347D01*
X006277Y015270D01*
X006047Y015270D02*
X005740Y015270D01*
X006047Y015577D01*
X006047Y015654D01*
X005970Y015730D01*
X005816Y015730D01*
X005740Y015654D01*
X005586Y015654D02*
X005510Y015730D01*
X005356Y015730D01*
X005279Y015654D01*
X005279Y015577D01*
X005356Y015500D01*
X005510Y015500D01*
X005586Y015423D01*
X005586Y015347D01*
X005510Y015270D01*
X005356Y015270D01*
X005279Y015347D01*
X004175Y015270D02*
X003868Y015270D01*
X004175Y015577D01*
X004175Y015654D01*
X004098Y015730D01*
X003945Y015730D01*
X003868Y015654D01*
X003484Y015654D02*
X003407Y015730D01*
X003254Y015730D01*
X003177Y015654D01*
X003024Y015654D02*
X002947Y015730D01*
X002794Y015730D01*
X002717Y015654D01*
X002717Y015577D01*
X002794Y015500D01*
X002947Y015500D01*
X003024Y015423D01*
X003024Y015347D01*
X002947Y015270D01*
X002794Y015270D01*
X002717Y015347D01*
X003177Y015270D02*
X003484Y015577D01*
X003484Y015654D01*
X003638Y015347D02*
X003714Y015347D01*
X003714Y015270D01*
X003638Y015270D01*
X003638Y015347D01*
X003484Y015270D02*
X003177Y015270D01*
X006430Y015577D02*
X006584Y015730D01*
X006584Y015270D01*
D19*
X006963Y010250D03*
X002600Y010250D03*
X015588Y010250D03*
X016350Y010250D03*
M02*
