G75*
G70*
%OFA0B0*%
%FSLAX24Y24*%
%IPPOS*%
%LPD*%
%AMOC8*
5,1,8,0,0,1.08239X$1,22.5*
%
%ADD10C,0.0060*%
%ADD11R,0.0390X0.0180*%
%ADD12R,0.0180X0.0390*%
%ADD13C,0.0030*%
%ADD14R,0.0256X0.0551*%
%ADD15C,0.0040*%
%ADD16C,0.0080*%
%ADD17C,0.0010*%
%ADD18R,0.0551X0.0256*%
%ADD19C,0.0050*%
%ADD20R,0.0689X0.0295*%
%ADD21R,0.0295X0.0571*%
%ADD22R,0.0571X0.0295*%
%ADD23R,0.0295X0.0689*%
%ADD24R,0.0118X0.0236*%
%ADD25C,0.0025*%
%ADD26C,0.0098*%
%ADD27R,0.1260X0.0236*%
%ADD28C,0.0240*%
%ADD29R,0.0340X0.0240*%
%ADD30R,0.0197X0.0059*%
%ADD31R,0.0220X0.0680*%
%ADD32R,0.0240X0.0620*%
%ADD33R,0.0680X0.0220*%
%ADD34R,0.0620X0.0240*%
D10*
X003141Y003435D02*
X003850Y003435D01*
X003850Y004065D02*
X003141Y004065D01*
X002377Y004400D02*
X002377Y005109D01*
X001748Y005109D02*
X001748Y004400D01*
X004244Y005256D02*
X004381Y005119D01*
X004506Y005244D02*
X004369Y005381D01*
X005701Y005056D02*
X005701Y004819D01*
X006174Y004819D02*
X006174Y005056D01*
X006745Y005370D02*
X009505Y005370D01*
X009505Y007990D01*
X009365Y008130D01*
X006745Y008130D01*
X006745Y005370D01*
X007075Y006100D02*
X008175Y006100D01*
X008192Y006102D01*
X008209Y006106D01*
X008225Y006113D01*
X008239Y006123D01*
X008252Y006136D01*
X008262Y006150D01*
X008269Y006166D01*
X008273Y006183D01*
X008275Y006200D01*
X008275Y006800D01*
X008273Y006817D01*
X008269Y006834D01*
X008262Y006850D01*
X008252Y006864D01*
X008239Y006877D01*
X008225Y006887D01*
X008209Y006894D01*
X008192Y006898D01*
X008175Y006900D01*
X007075Y006900D01*
X007058Y006898D01*
X007041Y006894D01*
X007025Y006887D01*
X007011Y006877D01*
X006998Y006864D01*
X006988Y006850D01*
X006981Y006834D01*
X006977Y006817D01*
X006975Y006800D01*
X006975Y006200D01*
X006977Y006183D01*
X006981Y006166D01*
X006988Y006150D01*
X006998Y006136D01*
X007011Y006123D01*
X007025Y006113D01*
X007041Y006106D01*
X007058Y006102D01*
X007075Y006100D01*
X007025Y006500D02*
X007225Y006500D01*
X008025Y006500D02*
X008225Y006500D01*
X009064Y007830D02*
X009066Y007853D01*
X009072Y007876D01*
X009081Y007897D01*
X009094Y007917D01*
X009110Y007934D01*
X009128Y007948D01*
X009148Y007959D01*
X009170Y007967D01*
X009193Y007971D01*
X009217Y007971D01*
X009240Y007967D01*
X009262Y007959D01*
X009282Y007948D01*
X009300Y007934D01*
X009316Y007917D01*
X009329Y007897D01*
X009338Y007876D01*
X009344Y007853D01*
X009346Y007830D01*
X009344Y007807D01*
X009338Y007784D01*
X009329Y007763D01*
X009316Y007743D01*
X009300Y007726D01*
X009282Y007712D01*
X009262Y007701D01*
X009240Y007693D01*
X009217Y007689D01*
X009193Y007689D01*
X009170Y007693D01*
X009148Y007701D01*
X009128Y007712D01*
X009110Y007726D01*
X009094Y007743D01*
X009081Y007763D01*
X009072Y007784D01*
X009066Y007807D01*
X009064Y007830D01*
X008188Y008800D02*
X008038Y008800D01*
X008021Y008802D01*
X008004Y008806D01*
X007988Y008813D01*
X007974Y008823D01*
X007961Y008836D01*
X007951Y008850D01*
X007944Y008866D01*
X007940Y008883D01*
X007938Y008900D01*
X007938Y009600D01*
X007940Y009617D01*
X007944Y009634D01*
X007951Y009650D01*
X007961Y009664D01*
X007974Y009677D01*
X007988Y009687D01*
X008004Y009694D01*
X008021Y009698D01*
X008038Y009700D01*
X008188Y009700D01*
X008238Y009650D01*
X010138Y009650D01*
X010188Y009700D01*
X010338Y009700D01*
X010355Y009698D01*
X010372Y009694D01*
X010388Y009687D01*
X010402Y009677D01*
X010415Y009664D01*
X010425Y009650D01*
X010432Y009634D01*
X010436Y009617D01*
X010438Y009600D01*
X010438Y008900D01*
X010436Y008883D01*
X010432Y008866D01*
X010425Y008850D01*
X010415Y008836D01*
X010402Y008823D01*
X010388Y008813D01*
X010372Y008806D01*
X010355Y008802D01*
X010338Y008800D01*
X010188Y008800D01*
X010138Y008850D01*
X008238Y008850D01*
X008188Y008800D01*
X008036Y012750D02*
X007714Y012750D01*
X007714Y013250D02*
X008036Y013250D01*
X008714Y013625D02*
X009036Y013625D01*
X009036Y014125D02*
X008714Y014125D01*
X008500Y015339D02*
X008500Y015661D01*
X009000Y015661D02*
X009000Y015339D01*
X009964Y015500D02*
X010286Y015500D01*
X010286Y015000D02*
X009964Y015000D01*
X010464Y014250D02*
X010786Y014250D01*
X010786Y013750D02*
X010464Y013750D01*
X012150Y013810D02*
X012859Y013810D01*
X012859Y014440D02*
X012150Y014440D01*
X011911Y015375D02*
X011589Y015375D01*
X011589Y015875D02*
X011911Y015875D01*
X012815Y016605D02*
X012815Y017645D01*
X013435Y017645D02*
X013435Y016605D01*
X014605Y016315D02*
X015645Y016315D01*
X015645Y016935D02*
X014605Y016935D01*
X014605Y015685D02*
X015645Y015685D01*
X015645Y015065D02*
X014605Y015065D01*
X015750Y014286D02*
X015750Y013964D01*
X016250Y013964D02*
X016250Y014286D01*
X016730Y015065D02*
X017770Y015065D01*
X017770Y015685D02*
X016730Y015685D01*
X016730Y016315D02*
X017770Y016315D01*
X017770Y016935D02*
X016730Y016935D01*
X018440Y016520D02*
X018440Y015480D01*
X019060Y015480D02*
X019060Y016520D01*
X019065Y013984D02*
X019065Y013275D01*
X018435Y013275D02*
X018435Y013984D01*
X012815Y008609D02*
X012815Y007900D01*
X012185Y007900D02*
X012185Y008609D01*
X012050Y004025D02*
X010950Y004025D01*
X010933Y004023D01*
X010916Y004019D01*
X010900Y004012D01*
X010886Y004002D01*
X010873Y003989D01*
X010863Y003975D01*
X010856Y003959D01*
X010852Y003942D01*
X010850Y003925D01*
X010850Y003325D01*
X010775Y003325D02*
X010775Y003925D01*
X010773Y003942D01*
X010769Y003959D01*
X010762Y003975D01*
X010752Y003989D01*
X010739Y004002D01*
X010725Y004012D01*
X010709Y004019D01*
X010692Y004023D01*
X010675Y004025D01*
X009575Y004025D01*
X009558Y004023D01*
X009541Y004019D01*
X009525Y004012D01*
X009511Y004002D01*
X009498Y003989D01*
X009488Y003975D01*
X009481Y003959D01*
X009477Y003942D01*
X009475Y003925D01*
X009475Y003325D01*
X009400Y003325D02*
X009400Y003925D01*
X009398Y003942D01*
X009394Y003959D01*
X009387Y003975D01*
X009377Y003989D01*
X009364Y004002D01*
X009350Y004012D01*
X009334Y004019D01*
X009317Y004023D01*
X009300Y004025D01*
X008200Y004025D01*
X008183Y004023D01*
X008166Y004019D01*
X008150Y004012D01*
X008136Y004002D01*
X008123Y003989D01*
X008113Y003975D01*
X008106Y003959D01*
X008102Y003942D01*
X008100Y003925D01*
X008100Y003325D01*
X008102Y003308D01*
X008106Y003291D01*
X008113Y003275D01*
X008123Y003261D01*
X008136Y003248D01*
X008150Y003238D01*
X008166Y003231D01*
X008183Y003227D01*
X008200Y003225D01*
X009300Y003225D01*
X009317Y003227D01*
X009334Y003231D01*
X009350Y003238D01*
X009364Y003248D01*
X009377Y003261D01*
X009387Y003275D01*
X009394Y003291D01*
X009398Y003308D01*
X009400Y003325D01*
X009475Y003325D02*
X009477Y003308D01*
X009481Y003291D01*
X009488Y003275D01*
X009498Y003261D01*
X009511Y003248D01*
X009525Y003238D01*
X009541Y003231D01*
X009558Y003227D01*
X009575Y003225D01*
X010675Y003225D01*
X010692Y003227D01*
X010709Y003231D01*
X010725Y003238D01*
X010739Y003248D01*
X010752Y003261D01*
X010762Y003275D01*
X010769Y003291D01*
X010773Y003308D01*
X010775Y003325D01*
X010850Y003325D02*
X010852Y003308D01*
X010856Y003291D01*
X010863Y003275D01*
X010873Y003261D01*
X010886Y003248D01*
X010900Y003238D01*
X010916Y003231D01*
X010933Y003227D01*
X010950Y003225D01*
X012050Y003225D01*
X012067Y003227D01*
X012084Y003231D01*
X012100Y003238D01*
X012114Y003248D01*
X012127Y003261D01*
X012137Y003275D01*
X012144Y003291D01*
X012148Y003308D01*
X012150Y003325D01*
X012150Y003925D01*
X012225Y003925D02*
X012225Y003325D01*
X012227Y003308D01*
X012231Y003291D01*
X012238Y003275D01*
X012248Y003261D01*
X012261Y003248D01*
X012275Y003238D01*
X012291Y003231D01*
X012308Y003227D01*
X012325Y003225D01*
X013425Y003225D01*
X013442Y003227D01*
X013459Y003231D01*
X013475Y003238D01*
X013489Y003248D01*
X013502Y003261D01*
X013512Y003275D01*
X013519Y003291D01*
X013523Y003308D01*
X013525Y003325D01*
X013525Y003925D01*
X013523Y003942D01*
X013519Y003959D01*
X013512Y003975D01*
X013502Y003989D01*
X013489Y004002D01*
X013475Y004012D01*
X013459Y004019D01*
X013442Y004023D01*
X013425Y004025D01*
X012325Y004025D01*
X012308Y004023D01*
X012291Y004019D01*
X012275Y004012D01*
X012261Y004002D01*
X012248Y003989D01*
X012238Y003975D01*
X012231Y003959D01*
X012227Y003942D01*
X012225Y003925D01*
X012150Y003925D02*
X012148Y003942D01*
X012144Y003959D01*
X012137Y003975D01*
X012127Y003989D01*
X012114Y004002D01*
X012100Y004012D01*
X012084Y004019D01*
X012067Y004023D01*
X012050Y004025D01*
X012100Y003625D02*
X011900Y003625D01*
X012275Y003625D02*
X012475Y003625D01*
X013275Y003625D02*
X013475Y003625D01*
X012877Y002484D02*
X012877Y001775D01*
X012248Y001775D02*
X012248Y002484D01*
X011502Y002484D02*
X011502Y001775D01*
X010873Y001775D02*
X010873Y002484D01*
X010127Y002484D02*
X010127Y001775D01*
X009498Y001775D02*
X009498Y002484D01*
X008752Y002484D02*
X008752Y001775D01*
X008123Y001775D02*
X008123Y002484D01*
X007925Y003100D02*
X006825Y003100D01*
X006808Y003102D01*
X006791Y003106D01*
X006775Y003113D01*
X006761Y003123D01*
X006748Y003136D01*
X006738Y003150D01*
X006731Y003166D01*
X006727Y003183D01*
X006725Y003200D01*
X006725Y003800D01*
X006727Y003817D01*
X006731Y003834D01*
X006738Y003850D01*
X006748Y003864D01*
X006761Y003877D01*
X006775Y003887D01*
X006791Y003894D01*
X006808Y003898D01*
X006825Y003900D01*
X007925Y003900D01*
X007942Y003898D01*
X007959Y003894D01*
X007975Y003887D01*
X007989Y003877D01*
X008002Y003864D01*
X008012Y003850D01*
X008019Y003834D01*
X008023Y003817D01*
X008025Y003800D01*
X008025Y003200D01*
X008023Y003183D01*
X008019Y003166D01*
X008012Y003150D01*
X008002Y003136D01*
X007989Y003123D01*
X007975Y003113D01*
X007959Y003106D01*
X007942Y003102D01*
X007925Y003100D01*
X007975Y003500D02*
X007775Y003500D01*
X008150Y003625D02*
X008350Y003625D01*
X009150Y003625D02*
X009350Y003625D01*
X009525Y003625D02*
X009725Y003625D01*
X010525Y003625D02*
X010725Y003625D01*
X010900Y003625D02*
X011100Y003625D01*
X007377Y002484D02*
X007377Y001775D01*
X006748Y001775D02*
X006748Y002484D01*
X006550Y002850D02*
X005450Y002850D01*
X005433Y002852D01*
X005416Y002856D01*
X005400Y002863D01*
X005386Y002873D01*
X005373Y002886D01*
X005363Y002900D01*
X005356Y002916D01*
X005352Y002933D01*
X005350Y002950D01*
X005350Y003550D01*
X005352Y003567D01*
X005356Y003584D01*
X005363Y003600D01*
X005373Y003614D01*
X005386Y003627D01*
X005400Y003637D01*
X005416Y003644D01*
X005433Y003648D01*
X005450Y003650D01*
X006550Y003650D01*
X006567Y003648D01*
X006584Y003644D01*
X006600Y003637D01*
X006614Y003627D01*
X006627Y003614D01*
X006637Y003600D01*
X006644Y003584D01*
X006648Y003567D01*
X006650Y003550D01*
X006650Y002950D01*
X006648Y002933D01*
X006644Y002916D01*
X006637Y002900D01*
X006627Y002886D01*
X006614Y002873D01*
X006600Y002863D01*
X006584Y002856D01*
X006567Y002852D01*
X006550Y002850D01*
X006600Y003250D02*
X006400Y003250D01*
X006775Y003500D02*
X006975Y003500D01*
X006188Y002286D02*
X006188Y001964D01*
X005688Y001964D02*
X005688Y002286D01*
X005190Y002609D02*
X005190Y001900D01*
X004560Y001900D02*
X004560Y002609D01*
X005400Y003250D02*
X005600Y003250D01*
X002377Y007141D02*
X002377Y007850D01*
X001748Y007850D02*
X001748Y007141D01*
X001859Y008560D02*
X001150Y008560D01*
X001150Y009190D02*
X001859Y009190D01*
X001625Y012964D02*
X001625Y013286D01*
X002125Y013286D02*
X002125Y012964D01*
X002980Y015065D02*
X004020Y015065D01*
X004020Y015685D02*
X002980Y015685D01*
X002980Y016315D02*
X004020Y016315D01*
X004020Y016935D02*
X002980Y016935D01*
X002310Y016520D02*
X002310Y015480D01*
X001690Y015480D02*
X001690Y016520D01*
X005105Y016315D02*
X006145Y016315D01*
X006145Y016935D02*
X005105Y016935D01*
X005105Y015685D02*
X006145Y015685D01*
X006145Y015065D02*
X005105Y015065D01*
X005089Y014750D02*
X005411Y014750D01*
X005411Y014250D02*
X005089Y014250D01*
X007315Y015730D02*
X007315Y016770D01*
X007935Y016770D02*
X007935Y015730D01*
D11*
X006530Y007852D03*
X006530Y007537D03*
X006530Y007222D03*
X006530Y006907D03*
X006530Y006593D03*
X006530Y006278D03*
X006530Y005963D03*
X006530Y005648D03*
X009720Y005648D03*
X009720Y005963D03*
X009720Y006278D03*
X009720Y006593D03*
X009720Y006907D03*
X009720Y007222D03*
X009720Y007537D03*
X009720Y007852D03*
D12*
X009227Y008345D03*
X008912Y008345D03*
X008597Y008345D03*
X008282Y008345D03*
X007968Y008345D03*
X007653Y008345D03*
X007338Y008345D03*
X007023Y008345D03*
X007023Y005155D03*
X007338Y005155D03*
X007653Y005155D03*
X007968Y005155D03*
X008282Y005155D03*
X008597Y005155D03*
X008912Y005155D03*
X009227Y005155D03*
D13*
X010496Y008070D02*
X010690Y008070D01*
X010593Y008070D02*
X010593Y008360D01*
X010690Y008263D01*
X010791Y008312D02*
X010839Y008360D01*
X010984Y008360D01*
X010984Y008070D01*
X010839Y008070D01*
X010791Y008118D01*
X010791Y008312D01*
X012381Y007591D02*
X012442Y007653D01*
X012566Y007653D01*
X012628Y007591D01*
X012628Y007530D01*
X012566Y007468D01*
X012442Y007468D01*
X012381Y007406D01*
X012381Y007344D01*
X012442Y007283D01*
X012566Y007283D01*
X012628Y007344D01*
X012749Y007283D02*
X012996Y007283D01*
X012996Y007344D01*
X012749Y007591D01*
X012749Y007653D01*
X012996Y007653D01*
D14*
X008163Y012999D03*
X007583Y012999D03*
X008583Y013874D03*
X009163Y013874D03*
X010333Y013999D03*
X010913Y013999D03*
X010413Y015249D03*
X009833Y015249D03*
X011458Y015624D03*
X012038Y015624D03*
X005538Y014499D03*
X004958Y014499D03*
D15*
X003008Y003029D02*
X003008Y002722D01*
X003085Y002645D01*
X003239Y002645D01*
X003315Y002722D01*
X003008Y003029D01*
X003085Y003105D01*
X003239Y003105D01*
X003315Y003029D01*
X003315Y002722D01*
X003469Y002645D02*
X003776Y002645D01*
X003929Y002645D02*
X004083Y002798D01*
X004006Y002798D02*
X004236Y002798D01*
X004236Y002645D02*
X004236Y003105D01*
X004006Y003105D01*
X003929Y003029D01*
X003929Y002875D01*
X004006Y002798D01*
X003776Y002952D02*
X003622Y003105D01*
X003622Y002645D01*
X002230Y003159D02*
X002153Y003083D01*
X002077Y003083D01*
X002000Y003159D01*
X002000Y003543D01*
X002077Y003543D02*
X001923Y003543D01*
X001770Y003543D02*
X001539Y003543D01*
X001463Y003466D01*
X001463Y003313D01*
X001539Y003236D01*
X001770Y003236D01*
X001770Y003083D02*
X001770Y003543D01*
X001309Y003466D02*
X001232Y003543D01*
X001079Y003543D01*
X001002Y003466D01*
X001002Y003389D01*
X001309Y003083D01*
X001002Y003083D01*
X004106Y006520D02*
X004413Y006520D01*
X004566Y006520D02*
X004873Y006520D01*
X004720Y006520D02*
X004720Y006980D01*
X004873Y006827D01*
X005027Y006904D02*
X005027Y006750D01*
X005103Y006673D01*
X005334Y006673D01*
X005334Y006520D02*
X005334Y006980D01*
X005103Y006980D01*
X005027Y006904D01*
X005180Y006673D02*
X005027Y006520D01*
X004413Y006827D02*
X004259Y006980D01*
X004259Y006520D01*
X001543Y006792D02*
X001543Y006946D01*
X001543Y006869D02*
X001159Y006869D01*
X001083Y006792D01*
X001083Y006716D01*
X001159Y006639D01*
X001083Y007099D02*
X001543Y007099D01*
X001543Y007329D01*
X001466Y007406D01*
X001313Y007406D01*
X001236Y007329D01*
X001236Y007099D01*
X001159Y007560D02*
X001083Y007636D01*
X001083Y007790D01*
X001159Y007867D01*
X001236Y007867D01*
X001313Y007790D01*
X001313Y007713D01*
X001313Y007790D02*
X001389Y007867D01*
X001466Y007867D01*
X001543Y007790D01*
X001543Y007636D01*
X001466Y007560D01*
X001770Y009395D02*
X001770Y009855D01*
X001539Y009855D01*
X001463Y009779D01*
X001463Y009625D01*
X001539Y009548D01*
X001770Y009548D01*
X002000Y009472D02*
X002000Y009855D01*
X002077Y009855D02*
X001923Y009855D01*
X002000Y009472D02*
X002077Y009395D01*
X002153Y009395D01*
X002230Y009472D01*
X001309Y009625D02*
X001002Y009625D01*
X001079Y009395D02*
X001079Y009855D01*
X001309Y009625D01*
X001355Y012014D02*
X000895Y012014D01*
X001048Y012014D02*
X001048Y012244D01*
X001125Y012321D01*
X001279Y012321D01*
X001355Y012244D01*
X001355Y012014D01*
X001048Y012167D02*
X000895Y012321D01*
X000895Y012474D02*
X000895Y012781D01*
X000895Y012628D02*
X001355Y012628D01*
X001202Y012474D01*
X001202Y012935D02*
X001125Y013011D01*
X001125Y013242D01*
X000972Y013242D02*
X001279Y013242D01*
X001355Y013165D01*
X001355Y013011D01*
X001279Y012935D01*
X001202Y012935D01*
X000972Y012935D02*
X000895Y013011D01*
X000895Y013165D01*
X000972Y013242D01*
X000945Y015449D02*
X000945Y015679D01*
X001022Y015756D01*
X001329Y015756D01*
X001405Y015679D01*
X001405Y015449D01*
X000945Y015449D01*
X001175Y015910D02*
X001175Y016217D01*
X000945Y016140D02*
X001405Y016140D01*
X001175Y015910D01*
X003251Y014717D02*
X003251Y014283D01*
X003999Y014283D01*
X003999Y014717D01*
X003251Y014717D01*
X003245Y014087D02*
X003168Y014010D01*
X003168Y013933D01*
X003245Y013856D01*
X003168Y013780D01*
X003168Y013703D01*
X003245Y013626D01*
X003398Y013626D01*
X003475Y013703D01*
X003628Y013626D02*
X003935Y013626D01*
X003935Y014087D01*
X004089Y014087D02*
X004089Y013626D01*
X004089Y013856D02*
X004396Y013856D01*
X004396Y013626D02*
X004396Y014087D01*
X005133Y013904D02*
X005210Y013980D01*
X005364Y013980D01*
X005440Y013904D01*
X005133Y013904D02*
X005133Y013827D01*
X005440Y013520D01*
X005133Y013520D01*
X005594Y013520D02*
X005901Y013520D01*
X006054Y013520D02*
X006208Y013673D01*
X006131Y013673D02*
X006054Y013750D01*
X006054Y013904D01*
X006131Y013980D01*
X006361Y013980D01*
X006361Y013520D01*
X006361Y013673D02*
X006131Y013673D01*
X005901Y013827D02*
X005747Y013980D01*
X005747Y013520D01*
X007383Y012480D02*
X007690Y012480D01*
X007690Y012250D01*
X007537Y012327D01*
X007460Y012327D01*
X007383Y012250D01*
X007383Y012097D01*
X007460Y012020D01*
X007614Y012020D01*
X007690Y012097D01*
X007844Y012020D02*
X008151Y012020D01*
X008304Y012020D02*
X008458Y012173D01*
X008381Y012173D02*
X008611Y012173D01*
X008611Y012020D02*
X008611Y012480D01*
X008381Y012480D01*
X008304Y012404D01*
X008304Y012250D01*
X008381Y012173D01*
X008151Y012327D02*
X007997Y012480D01*
X007997Y012020D01*
X008719Y011890D02*
X009781Y011890D01*
X009781Y012175D01*
X009713Y012106D01*
X009713Y011890D01*
X009781Y011890D01*
X009781Y012175D01*
X009496Y011890D01*
X009781Y011890D01*
X009781Y013110D01*
X008719Y013110D01*
X008719Y011890D01*
X009624Y012244D02*
X009646Y012280D01*
X009665Y012317D01*
X009680Y012356D01*
X009691Y012396D01*
X009699Y012438D01*
X009703Y012479D01*
X009703Y012521D01*
X009699Y012562D01*
X009691Y012604D01*
X009680Y012644D01*
X009665Y012683D01*
X009646Y012720D01*
X009624Y012756D01*
X009844Y013110D02*
X010906Y013110D01*
X010906Y011890D01*
X010906Y012175D01*
X010838Y012106D01*
X010838Y011890D01*
X010906Y011890D01*
X010906Y012175D01*
X010621Y011890D01*
X010906Y011890D01*
X009844Y011890D01*
X009844Y013110D01*
X010749Y012756D02*
X010771Y012720D01*
X010790Y012683D01*
X010805Y012644D01*
X010816Y012604D01*
X010824Y012562D01*
X010828Y012521D01*
X010828Y012479D01*
X010824Y012438D01*
X010816Y012396D01*
X010805Y012356D01*
X010790Y012317D01*
X010771Y012280D01*
X010749Y012244D01*
X010866Y012135D02*
X010906Y012135D01*
X010866Y012135D01*
X010838Y012097D02*
X010906Y012097D01*
X010828Y012097D01*
X010838Y012058D02*
X010906Y012058D01*
X010789Y012058D01*
X010751Y012020D02*
X010906Y012020D01*
X010838Y012020D01*
X010838Y011981D02*
X010906Y011981D01*
X010712Y011981D01*
X010674Y011943D02*
X010906Y011943D01*
X010838Y011943D01*
X010838Y011904D02*
X010906Y011904D01*
X010635Y011904D01*
X010969Y011890D02*
X012031Y011890D01*
X012031Y012175D01*
X011963Y012106D01*
X011963Y011890D01*
X012031Y011890D01*
X012031Y012175D01*
X011746Y011890D01*
X012031Y011890D01*
X012031Y013110D01*
X010969Y013110D01*
X010969Y011890D01*
X010906Y012174D02*
X010905Y012174D01*
X010906Y012174D01*
X010001Y012244D02*
X009979Y012280D01*
X009960Y012317D01*
X009945Y012356D01*
X009934Y012396D01*
X009926Y012438D01*
X009922Y012479D01*
X009922Y012521D01*
X009926Y012562D01*
X009934Y012604D01*
X009945Y012644D01*
X009960Y012683D01*
X009979Y012720D01*
X010001Y012756D01*
X009922Y012500D02*
X009924Y012542D01*
X009930Y012584D01*
X009940Y012626D01*
X009953Y012666D01*
X009971Y012705D01*
X009992Y012742D01*
X010016Y012776D01*
X010044Y012809D01*
X010074Y012839D01*
X010107Y012865D01*
X010142Y012889D01*
X010180Y012909D01*
X010219Y012925D01*
X010259Y012938D01*
X010301Y012947D01*
X010343Y012952D01*
X010386Y012953D01*
X010428Y012950D01*
X010470Y012943D01*
X010511Y012932D01*
X010551Y012917D01*
X010589Y012899D01*
X010626Y012877D01*
X010660Y012852D01*
X010692Y012824D01*
X010720Y012793D01*
X010746Y012759D01*
X010769Y012723D01*
X010788Y012686D01*
X010804Y012646D01*
X010816Y012605D01*
X010824Y012564D01*
X010828Y012521D01*
X010828Y012479D01*
X010824Y012436D01*
X010816Y012395D01*
X010804Y012354D01*
X010788Y012314D01*
X010769Y012277D01*
X010746Y012241D01*
X010720Y012207D01*
X010692Y012176D01*
X010660Y012148D01*
X010626Y012123D01*
X010589Y012101D01*
X010551Y012083D01*
X010511Y012068D01*
X010470Y012057D01*
X010428Y012050D01*
X010386Y012047D01*
X010343Y012048D01*
X010301Y012053D01*
X010259Y012062D01*
X010219Y012075D01*
X010180Y012091D01*
X010142Y012111D01*
X010107Y012135D01*
X010074Y012161D01*
X010044Y012191D01*
X010016Y012224D01*
X009992Y012258D01*
X009971Y012295D01*
X009953Y012334D01*
X009940Y012374D01*
X009930Y012416D01*
X009924Y012458D01*
X009922Y012500D01*
X009780Y012174D02*
X009781Y012174D01*
X009780Y012174D01*
X009781Y012135D02*
X009741Y012135D01*
X009781Y012135D01*
X009781Y012097D02*
X009713Y012097D01*
X009703Y012097D02*
X009781Y012097D01*
X009781Y012058D02*
X009713Y012058D01*
X009713Y012020D02*
X009781Y012020D01*
X009626Y012020D01*
X009664Y012058D02*
X009781Y012058D01*
X009781Y011981D02*
X009713Y011981D01*
X009713Y011943D02*
X009781Y011943D01*
X009549Y011943D01*
X009587Y011981D02*
X009781Y011981D01*
X009781Y011904D02*
X009713Y011904D01*
X009781Y011904D02*
X009510Y011904D01*
X009460Y011480D02*
X009383Y011404D01*
X009383Y011250D01*
X009460Y011173D01*
X009690Y011173D01*
X009690Y011020D02*
X009690Y011480D01*
X009460Y011480D01*
X009537Y011173D02*
X009383Y011020D01*
X009265Y010855D02*
X009572Y010855D01*
X009572Y010395D01*
X009265Y010395D01*
X009111Y010395D02*
X008881Y010395D01*
X008804Y010472D01*
X008804Y010779D01*
X008881Y010855D01*
X009111Y010855D01*
X009111Y010395D01*
X009418Y010625D02*
X009572Y010625D01*
X009725Y010395D02*
X010032Y010395D01*
X010032Y010855D01*
X010151Y010943D02*
X009844Y010943D01*
X010304Y011097D02*
X010304Y011404D01*
X010381Y011480D01*
X010611Y011480D01*
X010611Y011020D01*
X010381Y011020D01*
X010304Y011097D01*
X010765Y011020D02*
X011072Y011020D01*
X011072Y011480D01*
X010765Y011480D01*
X010918Y011250D02*
X011072Y011250D01*
X011225Y011020D02*
X011532Y011020D01*
X011532Y011480D01*
X011760Y011904D02*
X012031Y011904D01*
X011963Y011904D01*
X011963Y011943D02*
X012031Y011943D01*
X011799Y011943D01*
X011837Y011981D02*
X012031Y011981D01*
X011963Y011981D01*
X011963Y012020D02*
X012031Y012020D01*
X011876Y012020D01*
X011914Y012058D02*
X012031Y012058D01*
X011963Y012058D01*
X011963Y012097D02*
X012031Y012097D01*
X011953Y012097D01*
X011991Y012135D02*
X012031Y012135D01*
X011991Y012135D01*
X012030Y012174D02*
X012031Y012174D01*
X012030Y012174D01*
X012127Y012154D02*
X012434Y011847D01*
X012434Y011770D01*
X012588Y011770D02*
X012895Y011770D01*
X013048Y011770D02*
X013202Y011923D01*
X013125Y011923D02*
X013355Y011923D01*
X013355Y011770D02*
X013355Y012230D01*
X013125Y012230D01*
X013048Y012154D01*
X013048Y012000D01*
X013125Y011923D01*
X012895Y012077D02*
X012741Y012230D01*
X012741Y011770D01*
X012434Y012230D02*
X012127Y012230D01*
X012127Y012154D01*
X011126Y012244D02*
X011104Y012280D01*
X011085Y012317D01*
X011070Y012356D01*
X011059Y012396D01*
X011051Y012438D01*
X011047Y012479D01*
X011047Y012521D01*
X011051Y012562D01*
X011059Y012604D01*
X011070Y012644D01*
X011085Y012683D01*
X011104Y012720D01*
X011126Y012756D01*
X011874Y012756D02*
X011896Y012720D01*
X011915Y012683D01*
X011930Y012644D01*
X011941Y012604D01*
X011949Y012562D01*
X011953Y012521D01*
X011953Y012479D01*
X011949Y012438D01*
X011941Y012396D01*
X011930Y012356D01*
X011915Y012317D01*
X011896Y012280D01*
X011874Y012244D01*
X011047Y012500D02*
X011049Y012542D01*
X011055Y012584D01*
X011065Y012626D01*
X011078Y012666D01*
X011096Y012705D01*
X011117Y012742D01*
X011141Y012776D01*
X011169Y012809D01*
X011199Y012839D01*
X011232Y012865D01*
X011267Y012889D01*
X011305Y012909D01*
X011344Y012925D01*
X011384Y012938D01*
X011426Y012947D01*
X011468Y012952D01*
X011511Y012953D01*
X011553Y012950D01*
X011595Y012943D01*
X011636Y012932D01*
X011676Y012917D01*
X011714Y012899D01*
X011751Y012877D01*
X011785Y012852D01*
X011817Y012824D01*
X011845Y012793D01*
X011871Y012759D01*
X011894Y012723D01*
X011913Y012686D01*
X011929Y012646D01*
X011941Y012605D01*
X011949Y012564D01*
X011953Y012521D01*
X011953Y012479D01*
X011949Y012436D01*
X011941Y012395D01*
X011929Y012354D01*
X011913Y012314D01*
X011894Y012277D01*
X011871Y012241D01*
X011845Y012207D01*
X011817Y012176D01*
X011785Y012148D01*
X011751Y012123D01*
X011714Y012101D01*
X011676Y012083D01*
X011636Y012068D01*
X011595Y012057D01*
X011553Y012050D01*
X011511Y012047D01*
X011468Y012048D01*
X011426Y012053D01*
X011384Y012062D01*
X011344Y012075D01*
X011305Y012091D01*
X011267Y012111D01*
X011232Y012135D01*
X011199Y012161D01*
X011169Y012191D01*
X011141Y012224D01*
X011117Y012258D01*
X011096Y012295D01*
X011078Y012334D01*
X011065Y012374D01*
X011055Y012416D01*
X011049Y012458D01*
X011047Y012500D01*
X011065Y010855D02*
X010835Y010855D01*
X010758Y010779D01*
X010758Y010702D01*
X010835Y010625D01*
X011065Y010625D01*
X011065Y010395D02*
X010835Y010395D01*
X010758Y010472D01*
X010758Y010548D01*
X010835Y010625D01*
X011065Y010395D02*
X011065Y010855D01*
X011219Y010318D02*
X011526Y010318D01*
X011679Y010472D02*
X011679Y010779D01*
X011756Y010855D01*
X011986Y010855D01*
X011986Y010395D01*
X011756Y010395D01*
X011679Y010472D01*
X012140Y010395D02*
X012447Y010395D01*
X012447Y010855D01*
X012140Y010855D01*
X012293Y010625D02*
X012447Y010625D01*
X012600Y010395D02*
X012907Y010395D01*
X012907Y010855D01*
X013062Y009230D02*
X013216Y009230D01*
X013293Y009154D01*
X013293Y008847D01*
X013216Y008770D01*
X013062Y008770D01*
X012986Y008847D01*
X012832Y008770D02*
X012525Y008770D01*
X012679Y008770D02*
X012679Y009230D01*
X012832Y009077D01*
X012986Y009154D02*
X013062Y009230D01*
X011980Y008867D02*
X011904Y008713D01*
X011750Y008560D01*
X011750Y008790D01*
X011673Y008867D01*
X011597Y008867D01*
X011520Y008790D01*
X011520Y008636D01*
X011597Y008560D01*
X011750Y008560D01*
X011750Y008406D02*
X011673Y008329D01*
X011673Y008099D01*
X011520Y008099D02*
X011980Y008099D01*
X011980Y008329D01*
X011904Y008406D01*
X011750Y008406D01*
X011980Y007946D02*
X011980Y007792D01*
X011980Y007869D02*
X011597Y007869D01*
X011520Y007792D01*
X011520Y007716D01*
X011597Y007639D01*
X011611Y007662D02*
X011534Y007662D01*
X011458Y007586D01*
X011458Y007432D01*
X011534Y007355D01*
X011534Y007202D02*
X011458Y007125D01*
X011458Y006972D01*
X011534Y006895D01*
X011841Y006895D01*
X011918Y006972D01*
X011918Y007125D01*
X011841Y007202D01*
X011841Y007355D02*
X011918Y007432D01*
X011918Y007586D01*
X011841Y007662D01*
X011764Y007662D01*
X011688Y007586D01*
X011611Y007662D01*
X011688Y007586D02*
X011688Y007509D01*
X011197Y007025D02*
X011197Y006725D01*
X010678Y006735D02*
X010678Y007025D01*
X012400Y006731D02*
X012400Y005019D01*
X013600Y005019D02*
X013600Y006731D01*
X013447Y007600D02*
X013447Y007890D01*
X012928Y007900D02*
X012928Y007600D01*
X013538Y004635D02*
X013838Y004635D01*
X013828Y004115D02*
X013538Y004115D01*
X013648Y002605D02*
X013801Y002605D01*
X013878Y002529D01*
X014031Y002529D02*
X014108Y002605D01*
X014262Y002605D01*
X014338Y002529D01*
X014338Y002222D01*
X014262Y002145D01*
X014108Y002145D01*
X014031Y002222D01*
X013878Y002145D02*
X013571Y002452D01*
X013571Y002529D01*
X013648Y002605D01*
X013571Y002145D02*
X013878Y002145D01*
X014284Y001662D02*
X014361Y001662D01*
X014438Y001586D01*
X014438Y001355D01*
X014284Y001355D01*
X014208Y001432D01*
X014208Y001586D01*
X014284Y001662D01*
X014591Y001509D02*
X014438Y001355D01*
X014438Y001202D02*
X014361Y001125D01*
X014361Y000895D01*
X014361Y001048D02*
X014208Y001202D01*
X014438Y001202D02*
X014591Y001202D01*
X014668Y001125D01*
X014668Y000895D01*
X014208Y000895D01*
X014833Y000895D02*
X015293Y000895D01*
X015293Y001125D01*
X015216Y001202D01*
X015063Y001202D01*
X014986Y001125D01*
X014986Y000895D01*
X014986Y001048D02*
X014833Y001202D01*
X014909Y001355D02*
X014833Y001432D01*
X014833Y001586D01*
X014909Y001662D01*
X015063Y001662D01*
X015139Y001586D01*
X015139Y001509D01*
X015063Y001355D01*
X015293Y001355D01*
X015293Y001662D01*
X015458Y001586D02*
X015918Y001586D01*
X015688Y001355D01*
X015688Y001662D01*
X016083Y001586D02*
X016083Y001432D01*
X016159Y001355D01*
X016083Y001202D02*
X016236Y001048D01*
X016236Y001125D02*
X016236Y000895D01*
X016083Y000895D02*
X016543Y000895D01*
X016543Y001125D01*
X016466Y001202D01*
X016313Y001202D01*
X016236Y001125D01*
X016466Y001355D02*
X016543Y001432D01*
X016543Y001586D01*
X016466Y001662D01*
X016389Y001662D01*
X016313Y001586D01*
X016236Y001662D01*
X016159Y001662D01*
X016083Y001586D01*
X016313Y001586D02*
X016313Y001509D01*
X016708Y001662D02*
X016708Y001355D01*
X017014Y001662D01*
X017091Y001662D01*
X017168Y001586D01*
X017168Y001432D01*
X017091Y001355D01*
X017091Y001202D02*
X016938Y001202D01*
X016861Y001125D01*
X016861Y000895D01*
X016861Y001048D02*
X016708Y001202D01*
X016708Y000895D02*
X017168Y000895D01*
X017168Y001125D01*
X017091Y001202D01*
X017333Y001202D02*
X017486Y001048D01*
X017486Y001125D02*
X017486Y000895D01*
X017333Y000895D02*
X017793Y000895D01*
X017793Y001125D01*
X017716Y001202D01*
X017563Y001202D01*
X017486Y001125D01*
X017639Y001355D02*
X017793Y001509D01*
X017333Y001509D01*
X017333Y001662D02*
X017333Y001355D01*
X015918Y001125D02*
X015918Y000895D01*
X015458Y000895D01*
X015611Y000895D02*
X015611Y001125D01*
X015688Y001202D01*
X015841Y001202D01*
X015918Y001125D01*
X015611Y001048D02*
X015458Y001202D01*
X014668Y001662D02*
X014591Y001509D01*
X008651Y010318D02*
X008344Y010318D01*
X008190Y010472D02*
X008114Y010395D01*
X007960Y010395D01*
X007883Y010472D01*
X007883Y010625D01*
X008037Y010625D01*
X008190Y010472D02*
X008190Y010779D01*
X008114Y010855D01*
X007960Y010855D01*
X007883Y010779D01*
X008797Y012500D02*
X008799Y012542D01*
X008805Y012584D01*
X008815Y012626D01*
X008828Y012666D01*
X008846Y012705D01*
X008867Y012742D01*
X008891Y012776D01*
X008919Y012809D01*
X008949Y012839D01*
X008982Y012865D01*
X009017Y012889D01*
X009055Y012909D01*
X009094Y012925D01*
X009134Y012938D01*
X009176Y012947D01*
X009218Y012952D01*
X009261Y012953D01*
X009303Y012950D01*
X009345Y012943D01*
X009386Y012932D01*
X009426Y012917D01*
X009464Y012899D01*
X009501Y012877D01*
X009535Y012852D01*
X009567Y012824D01*
X009595Y012793D01*
X009621Y012759D01*
X009644Y012723D01*
X009663Y012686D01*
X009679Y012646D01*
X009691Y012605D01*
X009699Y012564D01*
X009703Y012521D01*
X009703Y012479D01*
X009699Y012436D01*
X009691Y012395D01*
X009679Y012354D01*
X009663Y012314D01*
X009644Y012277D01*
X009621Y012241D01*
X009595Y012207D01*
X009567Y012176D01*
X009535Y012148D01*
X009501Y012123D01*
X009464Y012101D01*
X009426Y012083D01*
X009386Y012068D01*
X009345Y012057D01*
X009303Y012050D01*
X009261Y012047D01*
X009218Y012048D01*
X009176Y012053D01*
X009134Y012062D01*
X009094Y012075D01*
X009055Y012091D01*
X009017Y012111D01*
X008982Y012135D01*
X008949Y012161D01*
X008919Y012191D01*
X008891Y012224D01*
X008867Y012258D01*
X008846Y012295D01*
X008828Y012334D01*
X008815Y012374D01*
X008805Y012416D01*
X008799Y012458D01*
X008797Y012500D01*
X008876Y012756D02*
X008854Y012720D01*
X008835Y012683D01*
X008820Y012644D01*
X008809Y012604D01*
X008801Y012562D01*
X008797Y012521D01*
X008797Y012479D01*
X008801Y012438D01*
X008809Y012396D01*
X008820Y012356D01*
X008835Y012317D01*
X008854Y012280D01*
X008876Y012244D01*
X009460Y014520D02*
X009383Y014597D01*
X009383Y014673D01*
X009460Y014750D01*
X009690Y014750D01*
X009690Y014597D01*
X009614Y014520D01*
X009460Y014520D01*
X009690Y014750D02*
X009537Y014904D01*
X009383Y014980D01*
X009997Y014980D02*
X009997Y014520D01*
X009844Y014520D02*
X010151Y014520D01*
X010304Y014520D02*
X010458Y014673D01*
X010381Y014673D02*
X010611Y014673D01*
X010611Y014520D02*
X010611Y014980D01*
X010381Y014980D01*
X010304Y014904D01*
X010304Y014750D01*
X010381Y014673D01*
X010151Y014827D02*
X009997Y014980D01*
X009105Y016895D02*
X009105Y017355D01*
X008875Y017355D01*
X008798Y017279D01*
X008798Y017125D01*
X008875Y017048D01*
X009105Y017048D01*
X008952Y017048D02*
X008798Y016895D01*
X008645Y016895D02*
X008645Y016972D01*
X008338Y017279D01*
X008338Y017355D01*
X008645Y017355D01*
X009398Y018615D02*
X009552Y018615D01*
X009628Y018691D01*
X009628Y018768D01*
X009552Y018845D01*
X009398Y018845D01*
X009321Y018768D01*
X009321Y018691D01*
X009398Y018615D01*
X009398Y018845D02*
X009321Y018922D01*
X009321Y018998D01*
X009398Y019075D01*
X009552Y019075D01*
X009628Y018998D01*
X009628Y018922D01*
X009552Y018845D01*
X009782Y018845D02*
X009859Y018768D01*
X010089Y018768D01*
X010089Y018615D02*
X010089Y019075D01*
X009859Y019075D01*
X009782Y018998D01*
X009782Y018845D01*
X009935Y018768D02*
X009782Y018615D01*
X010989Y018713D02*
X010989Y019020D01*
X011066Y019097D01*
X011220Y019097D01*
X011296Y019020D01*
X011296Y018943D01*
X011220Y018866D01*
X010989Y018866D01*
X010989Y018713D02*
X011066Y018636D01*
X011220Y018636D01*
X011296Y018713D01*
X011450Y018636D02*
X011603Y018790D01*
X011526Y018790D02*
X011757Y018790D01*
X011757Y018636D02*
X011757Y019097D01*
X011526Y019097D01*
X011450Y019020D01*
X011450Y018866D01*
X011526Y018790D01*
X013688Y018797D02*
X013764Y018720D01*
X013918Y018720D01*
X013995Y018797D01*
X013995Y018873D01*
X013918Y018950D01*
X013764Y018950D01*
X013688Y018873D01*
X013688Y018797D01*
X013764Y018950D02*
X013688Y019027D01*
X013688Y019104D01*
X013764Y019180D01*
X013918Y019180D01*
X013995Y019104D01*
X013995Y019027D01*
X013918Y018950D01*
X014148Y018797D02*
X014148Y019104D01*
X014225Y019180D01*
X014455Y019180D01*
X014455Y018720D01*
X014225Y018720D01*
X014148Y018797D01*
X015063Y018922D02*
X015063Y019229D01*
X015139Y019305D01*
X015293Y019305D01*
X015370Y019229D01*
X015370Y019152D01*
X015293Y019075D01*
X015063Y019075D01*
X015063Y018922D02*
X015139Y018845D01*
X015293Y018845D01*
X015370Y018922D01*
X015523Y018922D02*
X015523Y019229D01*
X015600Y019305D01*
X015830Y019305D01*
X015830Y018845D01*
X015600Y018845D01*
X015523Y018922D01*
X015495Y019470D02*
X015188Y019470D01*
X015341Y019470D02*
X015341Y019930D01*
X015495Y019777D01*
X015648Y019854D02*
X015648Y019547D01*
X015725Y019470D01*
X015955Y019470D01*
X015955Y019930D01*
X015725Y019930D01*
X015648Y019854D01*
X015034Y019854D02*
X014957Y019930D01*
X014804Y019930D01*
X014727Y019854D01*
X014727Y019777D01*
X014804Y019700D01*
X014727Y019623D01*
X014727Y019547D01*
X014804Y019470D01*
X014957Y019470D01*
X015034Y019547D01*
X014881Y019700D02*
X014804Y019700D01*
X016352Y019777D02*
X016352Y019854D01*
X016429Y019930D01*
X016582Y019930D01*
X016659Y019854D01*
X016966Y019930D02*
X016966Y019470D01*
X016813Y019470D02*
X017120Y019470D01*
X017273Y019547D02*
X017273Y019854D01*
X017350Y019930D01*
X017580Y019930D01*
X017580Y019470D01*
X017350Y019470D01*
X017273Y019547D01*
X017350Y019305D02*
X017580Y019305D01*
X017580Y018845D01*
X017350Y018845D01*
X017273Y018922D01*
X017273Y019229D01*
X017350Y019305D01*
X017120Y019152D02*
X016966Y019305D01*
X016966Y018845D01*
X016813Y018845D02*
X017120Y018845D01*
X016659Y018922D02*
X016352Y019229D01*
X016352Y018922D01*
X016429Y018845D01*
X016582Y018845D01*
X016659Y018922D01*
X016659Y019229D01*
X016582Y019305D01*
X016429Y019305D01*
X016352Y019229D01*
X016352Y019470D02*
X016659Y019470D01*
X016352Y019777D01*
X016966Y019930D02*
X017120Y019777D01*
X019320Y016467D02*
X019320Y016160D01*
X019320Y016313D02*
X019780Y016313D01*
X019627Y016160D01*
X019320Y016006D02*
X019320Y015699D01*
X019320Y015853D02*
X019780Y015853D01*
X019627Y015699D01*
X019704Y015546D02*
X019397Y015546D01*
X019320Y015469D01*
X019320Y015239D01*
X019780Y015239D01*
X019780Y015469D01*
X019704Y015546D01*
X018279Y013873D02*
X018202Y013873D01*
X018125Y013796D01*
X018048Y013873D01*
X017972Y013873D01*
X017895Y013796D01*
X017895Y013643D01*
X017972Y013566D01*
X017895Y013412D02*
X017895Y013105D01*
X017895Y012952D02*
X018048Y012798D01*
X018048Y012875D02*
X018048Y012645D01*
X017895Y012645D02*
X018355Y012645D01*
X018355Y012875D01*
X018279Y012952D01*
X018125Y012952D01*
X018048Y012875D01*
X018202Y013105D02*
X018355Y013259D01*
X017895Y013259D01*
X018279Y013566D02*
X018355Y013643D01*
X018355Y013796D01*
X018279Y013873D01*
X018125Y013796D02*
X018125Y013719D01*
X017730Y014145D02*
X017730Y014605D01*
X017500Y014605D01*
X017423Y014529D01*
X017423Y014375D01*
X017500Y014298D01*
X017730Y014298D01*
X017577Y014298D02*
X017423Y014145D01*
X017270Y014145D02*
X016963Y014145D01*
X017116Y014145D02*
X017116Y014605D01*
X017270Y014452D01*
X016809Y014452D02*
X016809Y014529D01*
X016732Y014605D01*
X016579Y014605D01*
X016502Y014529D01*
X016502Y014452D01*
X016579Y014375D01*
X016732Y014375D01*
X016809Y014452D01*
X016732Y014375D02*
X016809Y014298D01*
X016809Y014222D01*
X016732Y014145D01*
X016579Y014145D01*
X016502Y014222D01*
X016502Y014298D01*
X016579Y014375D01*
X013230Y014722D02*
X013153Y014645D01*
X013077Y014645D01*
X013000Y014722D01*
X013000Y015105D01*
X013077Y015105D02*
X012923Y015105D01*
X012770Y015105D02*
X012539Y015105D01*
X012463Y015029D01*
X012463Y014875D01*
X012539Y014798D01*
X012770Y014798D01*
X012770Y014645D02*
X012770Y015105D01*
X012309Y015105D02*
X012002Y015105D01*
X012002Y015029D01*
X012309Y014722D01*
X012309Y014645D01*
X007330Y018845D02*
X007100Y018845D01*
X007023Y018922D01*
X007023Y019229D01*
X007100Y019305D01*
X007330Y019305D01*
X007330Y018845D01*
X006870Y018845D02*
X006870Y018922D01*
X006563Y019229D01*
X006563Y019305D01*
X006870Y019305D01*
X005955Y019305D02*
X005955Y018845D01*
X005725Y018845D01*
X005648Y018922D01*
X005648Y019229D01*
X005725Y019305D01*
X005955Y019305D01*
X005955Y019470D02*
X005725Y019470D01*
X005648Y019547D01*
X005648Y019854D01*
X005725Y019930D01*
X005955Y019930D01*
X005955Y019470D01*
X005495Y019547D02*
X005418Y019470D01*
X005264Y019470D01*
X005188Y019547D01*
X005188Y019623D01*
X005264Y019700D01*
X005495Y019700D01*
X005495Y019547D01*
X005495Y019700D02*
X005341Y019854D01*
X005188Y019930D01*
X005264Y019305D02*
X005418Y019305D01*
X005495Y019229D01*
X005264Y019305D02*
X005188Y019229D01*
X005188Y019152D01*
X005495Y018845D01*
X005188Y018845D01*
X003705Y018845D02*
X003475Y018845D01*
X003398Y018922D01*
X003398Y019229D01*
X003475Y019305D01*
X003705Y019305D01*
X003705Y018845D01*
X003245Y018922D02*
X003168Y018845D01*
X003014Y018845D01*
X002938Y018922D01*
X002938Y018998D01*
X003014Y019075D01*
X003091Y019075D01*
X003014Y019075D02*
X002938Y019152D01*
X002938Y019229D01*
X003014Y019305D01*
X003168Y019305D01*
X003245Y019229D01*
X003168Y019470D02*
X003014Y019470D01*
X002938Y019547D01*
X002938Y019700D01*
X003014Y019777D01*
X003091Y019777D01*
X003245Y019700D01*
X003245Y019930D01*
X002938Y019930D01*
X003398Y019854D02*
X003398Y019547D01*
X003475Y019470D01*
X003705Y019470D01*
X003705Y019930D01*
X003475Y019930D01*
X003398Y019854D01*
X003245Y019547D02*
X003168Y019470D01*
X003245Y014087D02*
X003398Y014087D01*
X003475Y014010D01*
X003321Y013856D02*
X003245Y013856D01*
X004537Y001105D02*
X004537Y000645D01*
X004690Y000645D02*
X004383Y000645D01*
X004690Y000952D02*
X004537Y001105D01*
X004844Y001029D02*
X004844Y000875D01*
X004921Y000798D01*
X005151Y000798D01*
X005151Y000645D02*
X005151Y001105D01*
X004921Y001105D01*
X004844Y001029D01*
X005304Y001105D02*
X005458Y001105D01*
X005381Y001105D02*
X005381Y000722D01*
X005458Y000645D01*
X005534Y000645D01*
X005611Y000722D01*
D16*
X005872Y015139D02*
X005872Y015611D01*
X005478Y015375D01*
X005872Y015139D01*
X005378Y016389D02*
X005378Y016861D01*
X005772Y016625D01*
X005378Y016389D01*
X003747Y015611D02*
X003747Y015139D01*
X003353Y015375D01*
X003747Y015611D01*
X003253Y016389D02*
X003253Y016861D01*
X003647Y016625D01*
X003253Y016389D01*
X002236Y015753D02*
X001764Y015753D01*
X002000Y016147D01*
X002236Y015753D01*
X007389Y016497D02*
X007861Y016497D01*
X007625Y016103D01*
X007389Y016497D01*
X008879Y017685D02*
X008879Y018512D01*
X008879Y019772D02*
X008879Y020323D01*
X011871Y020323D01*
X011871Y019772D01*
X011871Y018512D02*
X011871Y017685D01*
X011595Y016701D02*
X011241Y016701D01*
X009509Y016701D02*
X009155Y016701D01*
X012889Y017372D02*
X013361Y017372D01*
X013125Y016978D01*
X012889Y017372D01*
X014878Y015611D02*
X014878Y015139D01*
X015272Y015375D01*
X014878Y015611D01*
X015372Y016389D02*
X015372Y016861D01*
X014978Y016625D01*
X015372Y016389D01*
X017103Y016625D02*
X017497Y016861D01*
X017497Y016389D01*
X017103Y016625D01*
X017003Y015611D02*
X017003Y015139D01*
X017397Y015375D01*
X017003Y015611D01*
X018514Y015753D02*
X018986Y015753D01*
X018750Y016147D01*
X018514Y015753D01*
D17*
X010540Y018470D02*
X010440Y018620D01*
X010392Y018570D02*
X010342Y018620D01*
X010342Y018470D01*
X010392Y018470D02*
X010292Y018470D01*
X010440Y018470D02*
X010540Y018620D01*
X006712Y004545D02*
X006662Y004545D01*
X006687Y004545D02*
X006687Y004420D01*
X006712Y004395D01*
X006737Y004395D01*
X006762Y004420D01*
X006615Y004395D02*
X006615Y004545D01*
X006540Y004545D01*
X006515Y004520D01*
X006515Y004470D01*
X006540Y004445D01*
X006615Y004445D01*
X006467Y004420D02*
X006442Y004395D01*
X006392Y004395D01*
X006367Y004420D01*
X006367Y004470D01*
X006392Y004495D01*
X006417Y004495D01*
X006467Y004470D01*
X006467Y004545D01*
X006367Y004545D01*
D18*
X005937Y002417D03*
X005937Y001837D03*
X001874Y012837D03*
X001874Y013417D03*
X008751Y015208D03*
X008751Y015788D03*
X016001Y014413D03*
X016001Y013833D03*
D19*
X009919Y009425D02*
X009919Y008975D01*
X009919Y009125D02*
X009693Y009125D01*
X009618Y009200D01*
X009618Y009350D01*
X009693Y009425D01*
X009919Y009425D01*
X009769Y009125D02*
X009618Y008975D01*
X009458Y008975D02*
X009158Y008975D01*
X009308Y008975D02*
X009308Y009425D01*
X009458Y009275D01*
X008998Y009200D02*
X008698Y009200D01*
X008773Y008975D02*
X008773Y009425D01*
X008998Y009200D01*
X008381Y007525D02*
X008456Y007450D01*
X008456Y007375D01*
X008381Y007300D01*
X008231Y007300D01*
X008156Y007225D01*
X008156Y007150D01*
X008231Y007075D01*
X008381Y007075D01*
X008456Y007150D01*
X008381Y007525D02*
X008231Y007525D01*
X008156Y007450D01*
X007846Y007525D02*
X007696Y007525D01*
X007771Y007525D02*
X007771Y007150D01*
X007846Y007075D01*
X007921Y007075D01*
X007996Y007150D01*
X007535Y007075D02*
X007235Y007075D01*
X007385Y007075D02*
X007385Y007525D01*
X007535Y007375D01*
X007501Y006773D02*
X007524Y006500D01*
X007524Y006500D01*
X007501Y006227D01*
X007500Y006226D01*
X007468Y006231D01*
X007436Y006240D01*
X007406Y006252D01*
X007378Y006268D01*
X007351Y006287D01*
X007327Y006309D01*
X007306Y006333D01*
X007288Y006360D01*
X007273Y006389D01*
X007262Y006420D01*
X007254Y006451D01*
X007250Y006484D01*
X007250Y006516D01*
X007254Y006549D01*
X007262Y006580D01*
X007273Y006611D01*
X007288Y006640D01*
X007306Y006667D01*
X007327Y006691D01*
X007351Y006713D01*
X007378Y006732D01*
X007406Y006748D01*
X007436Y006760D01*
X007468Y006769D01*
X007500Y006774D01*
X007500Y006727D01*
X007472Y006722D01*
X007444Y006713D01*
X007418Y006701D01*
X007393Y006686D01*
X007370Y006668D01*
X007350Y006647D01*
X007333Y006623D01*
X007319Y006598D01*
X007308Y006571D01*
X007301Y006543D01*
X007297Y006514D01*
X007297Y006486D01*
X007301Y006457D01*
X007308Y006429D01*
X007319Y006402D01*
X007333Y006377D01*
X007350Y006353D01*
X007370Y006332D01*
X007393Y006314D01*
X007418Y006299D01*
X007444Y006287D01*
X007472Y006278D01*
X007500Y006273D01*
X007500Y006321D01*
X007475Y006326D01*
X007450Y006335D01*
X007428Y006347D01*
X007407Y006363D01*
X007388Y006381D01*
X007373Y006402D01*
X007360Y006425D01*
X007351Y006449D01*
X007346Y006474D01*
X007344Y006500D01*
X007346Y006526D01*
X007351Y006551D01*
X007360Y006575D01*
X007373Y006598D01*
X007388Y006619D01*
X007407Y006637D01*
X007428Y006653D01*
X007450Y006665D01*
X007475Y006674D01*
X007500Y006679D01*
X007500Y006632D01*
X007479Y006626D01*
X007459Y006617D01*
X007441Y006605D01*
X007425Y006590D01*
X007412Y006572D01*
X007402Y006553D01*
X007395Y006532D01*
X007391Y006511D01*
X007391Y006489D01*
X007395Y006468D01*
X007402Y006447D01*
X007412Y006428D01*
X007425Y006410D01*
X007441Y006395D01*
X007459Y006383D01*
X007479Y006374D01*
X007500Y006368D01*
X007500Y006417D01*
X007484Y006423D01*
X007470Y006432D01*
X007458Y006445D01*
X007448Y006459D01*
X007442Y006475D01*
X007438Y006491D01*
X007438Y006509D01*
X007442Y006525D01*
X007448Y006541D01*
X007458Y006555D01*
X007470Y006568D01*
X007484Y006577D01*
X007500Y006583D01*
X007502Y006532D01*
X007494Y006525D01*
X007488Y006516D01*
X007485Y006505D01*
X007485Y006495D01*
X007488Y006484D01*
X007494Y006475D01*
X007502Y006468D01*
X007749Y006227D02*
X007726Y006500D01*
X007726Y006500D01*
X007749Y006773D01*
X007750Y006774D01*
X007782Y006769D01*
X007814Y006760D01*
X007844Y006748D01*
X007872Y006732D01*
X007899Y006713D01*
X007923Y006691D01*
X007944Y006667D01*
X007962Y006640D01*
X007977Y006611D01*
X007988Y006580D01*
X007996Y006549D01*
X008000Y006516D01*
X008000Y006484D01*
X007996Y006451D01*
X007988Y006420D01*
X007977Y006389D01*
X007962Y006360D01*
X007944Y006333D01*
X007923Y006309D01*
X007899Y006287D01*
X007872Y006268D01*
X007844Y006252D01*
X007814Y006240D01*
X007782Y006231D01*
X007750Y006226D01*
X007750Y006273D01*
X007778Y006278D01*
X007806Y006287D01*
X007832Y006299D01*
X007857Y006314D01*
X007880Y006332D01*
X007900Y006353D01*
X007917Y006377D01*
X007931Y006402D01*
X007942Y006429D01*
X007949Y006457D01*
X007953Y006486D01*
X007953Y006514D01*
X007949Y006543D01*
X007942Y006571D01*
X007931Y006598D01*
X007917Y006623D01*
X007900Y006647D01*
X007880Y006668D01*
X007857Y006686D01*
X007832Y006701D01*
X007806Y006713D01*
X007778Y006722D01*
X007750Y006727D01*
X007750Y006679D01*
X007775Y006674D01*
X007800Y006665D01*
X007822Y006653D01*
X007843Y006637D01*
X007862Y006619D01*
X007877Y006598D01*
X007890Y006575D01*
X007899Y006551D01*
X007904Y006526D01*
X007906Y006500D01*
X007904Y006474D01*
X007899Y006449D01*
X007890Y006425D01*
X007877Y006402D01*
X007862Y006381D01*
X007843Y006363D01*
X007822Y006347D01*
X007800Y006335D01*
X007775Y006326D01*
X007750Y006321D01*
X007750Y006368D01*
X007771Y006374D01*
X007791Y006383D01*
X007809Y006395D01*
X007825Y006410D01*
X007838Y006428D01*
X007848Y006447D01*
X007855Y006468D01*
X007859Y006489D01*
X007859Y006511D01*
X007855Y006532D01*
X007848Y006553D01*
X007838Y006572D01*
X007825Y006590D01*
X007809Y006605D01*
X007791Y006617D01*
X007771Y006626D01*
X007750Y006632D01*
X007750Y006583D01*
X007766Y006577D01*
X007780Y006568D01*
X007792Y006555D01*
X007802Y006541D01*
X007808Y006525D01*
X007812Y006509D01*
X007812Y006491D01*
X007808Y006475D01*
X007802Y006459D01*
X007792Y006445D01*
X007780Y006432D01*
X007766Y006423D01*
X007750Y006417D01*
X007748Y006468D01*
X007756Y006475D01*
X007762Y006484D01*
X007765Y006495D01*
X007765Y006505D01*
X007762Y006516D01*
X007756Y006525D01*
X007748Y006532D01*
X008626Y003898D02*
X008649Y003625D01*
X008649Y003625D01*
X008626Y003352D01*
X008625Y003351D01*
X008593Y003356D01*
X008561Y003365D01*
X008531Y003377D01*
X008503Y003393D01*
X008476Y003412D01*
X008452Y003434D01*
X008431Y003458D01*
X008413Y003485D01*
X008398Y003514D01*
X008387Y003545D01*
X008379Y003576D01*
X008375Y003609D01*
X008375Y003641D01*
X008379Y003674D01*
X008387Y003705D01*
X008398Y003736D01*
X008413Y003765D01*
X008431Y003792D01*
X008452Y003816D01*
X008476Y003838D01*
X008503Y003857D01*
X008531Y003873D01*
X008561Y003885D01*
X008593Y003894D01*
X008625Y003899D01*
X008625Y003852D01*
X008597Y003847D01*
X008569Y003838D01*
X008543Y003826D01*
X008518Y003811D01*
X008495Y003793D01*
X008475Y003772D01*
X008458Y003748D01*
X008444Y003723D01*
X008433Y003696D01*
X008426Y003668D01*
X008422Y003639D01*
X008422Y003611D01*
X008426Y003582D01*
X008433Y003554D01*
X008444Y003527D01*
X008458Y003502D01*
X008475Y003478D01*
X008495Y003457D01*
X008518Y003439D01*
X008543Y003424D01*
X008569Y003412D01*
X008597Y003403D01*
X008625Y003398D01*
X008625Y003446D01*
X008600Y003451D01*
X008575Y003460D01*
X008553Y003472D01*
X008532Y003488D01*
X008513Y003506D01*
X008498Y003527D01*
X008485Y003550D01*
X008476Y003574D01*
X008471Y003599D01*
X008469Y003625D01*
X008471Y003651D01*
X008476Y003676D01*
X008485Y003700D01*
X008498Y003723D01*
X008513Y003744D01*
X008532Y003762D01*
X008553Y003778D01*
X008575Y003790D01*
X008600Y003799D01*
X008625Y003804D01*
X008625Y003757D01*
X008604Y003751D01*
X008584Y003742D01*
X008566Y003730D01*
X008550Y003715D01*
X008537Y003697D01*
X008527Y003678D01*
X008520Y003657D01*
X008516Y003636D01*
X008516Y003614D01*
X008520Y003593D01*
X008527Y003572D01*
X008537Y003553D01*
X008550Y003535D01*
X008566Y003520D01*
X008584Y003508D01*
X008604Y003499D01*
X008625Y003493D01*
X008625Y003542D01*
X008609Y003548D01*
X008595Y003557D01*
X008583Y003570D01*
X008573Y003584D01*
X008567Y003600D01*
X008563Y003616D01*
X008563Y003634D01*
X008567Y003650D01*
X008573Y003666D01*
X008583Y003680D01*
X008595Y003693D01*
X008609Y003702D01*
X008625Y003708D01*
X008627Y003657D01*
X008619Y003650D01*
X008613Y003641D01*
X008610Y003630D01*
X008610Y003620D01*
X008613Y003609D01*
X008619Y003600D01*
X008627Y003593D01*
X008874Y003352D02*
X008851Y003625D01*
X008851Y003625D01*
X008874Y003898D01*
X008875Y003899D01*
X008907Y003894D01*
X008939Y003885D01*
X008969Y003873D01*
X008997Y003857D01*
X009024Y003838D01*
X009048Y003816D01*
X009069Y003792D01*
X009087Y003765D01*
X009102Y003736D01*
X009113Y003705D01*
X009121Y003674D01*
X009125Y003641D01*
X009125Y003609D01*
X009121Y003576D01*
X009113Y003545D01*
X009102Y003514D01*
X009087Y003485D01*
X009069Y003458D01*
X009048Y003434D01*
X009024Y003412D01*
X008997Y003393D01*
X008969Y003377D01*
X008939Y003365D01*
X008907Y003356D01*
X008875Y003351D01*
X008875Y003398D01*
X008903Y003403D01*
X008931Y003412D01*
X008957Y003424D01*
X008982Y003439D01*
X009005Y003457D01*
X009025Y003478D01*
X009042Y003502D01*
X009056Y003527D01*
X009067Y003554D01*
X009074Y003582D01*
X009078Y003611D01*
X009078Y003639D01*
X009074Y003668D01*
X009067Y003696D01*
X009056Y003723D01*
X009042Y003748D01*
X009025Y003772D01*
X009005Y003793D01*
X008982Y003811D01*
X008957Y003826D01*
X008931Y003838D01*
X008903Y003847D01*
X008875Y003852D01*
X008875Y003804D01*
X008900Y003799D01*
X008925Y003790D01*
X008947Y003778D01*
X008968Y003762D01*
X008987Y003744D01*
X009002Y003723D01*
X009015Y003700D01*
X009024Y003676D01*
X009029Y003651D01*
X009031Y003625D01*
X009029Y003599D01*
X009024Y003574D01*
X009015Y003550D01*
X009002Y003527D01*
X008987Y003506D01*
X008968Y003488D01*
X008947Y003472D01*
X008925Y003460D01*
X008900Y003451D01*
X008875Y003446D01*
X008875Y003493D01*
X008896Y003499D01*
X008916Y003508D01*
X008934Y003520D01*
X008950Y003535D01*
X008963Y003553D01*
X008973Y003572D01*
X008980Y003593D01*
X008984Y003614D01*
X008984Y003636D01*
X008980Y003657D01*
X008973Y003678D01*
X008963Y003697D01*
X008950Y003715D01*
X008934Y003730D01*
X008916Y003742D01*
X008896Y003751D01*
X008875Y003757D01*
X008875Y003708D01*
X008891Y003702D01*
X008905Y003693D01*
X008917Y003680D01*
X008927Y003666D01*
X008933Y003650D01*
X008937Y003634D01*
X008937Y003616D01*
X008933Y003600D01*
X008927Y003584D01*
X008917Y003570D01*
X008905Y003557D01*
X008891Y003548D01*
X008875Y003542D01*
X008873Y003593D01*
X008881Y003600D01*
X008887Y003609D01*
X008890Y003620D01*
X008890Y003630D01*
X008887Y003641D01*
X008881Y003650D01*
X008873Y003657D01*
X010001Y003898D02*
X010024Y003625D01*
X010024Y003625D01*
X010001Y003352D01*
X010000Y003351D01*
X009968Y003356D01*
X009936Y003365D01*
X009906Y003377D01*
X009878Y003393D01*
X009851Y003412D01*
X009827Y003434D01*
X009806Y003458D01*
X009788Y003485D01*
X009773Y003514D01*
X009762Y003545D01*
X009754Y003576D01*
X009750Y003609D01*
X009750Y003641D01*
X009754Y003674D01*
X009762Y003705D01*
X009773Y003736D01*
X009788Y003765D01*
X009806Y003792D01*
X009827Y003816D01*
X009851Y003838D01*
X009878Y003857D01*
X009906Y003873D01*
X009936Y003885D01*
X009968Y003894D01*
X010000Y003899D01*
X010000Y003852D01*
X009972Y003847D01*
X009944Y003838D01*
X009918Y003826D01*
X009893Y003811D01*
X009870Y003793D01*
X009850Y003772D01*
X009833Y003748D01*
X009819Y003723D01*
X009808Y003696D01*
X009801Y003668D01*
X009797Y003639D01*
X009797Y003611D01*
X009801Y003582D01*
X009808Y003554D01*
X009819Y003527D01*
X009833Y003502D01*
X009850Y003478D01*
X009870Y003457D01*
X009893Y003439D01*
X009918Y003424D01*
X009944Y003412D01*
X009972Y003403D01*
X010000Y003398D01*
X010000Y003446D01*
X009975Y003451D01*
X009950Y003460D01*
X009928Y003472D01*
X009907Y003488D01*
X009888Y003506D01*
X009873Y003527D01*
X009860Y003550D01*
X009851Y003574D01*
X009846Y003599D01*
X009844Y003625D01*
X009846Y003651D01*
X009851Y003676D01*
X009860Y003700D01*
X009873Y003723D01*
X009888Y003744D01*
X009907Y003762D01*
X009928Y003778D01*
X009950Y003790D01*
X009975Y003799D01*
X010000Y003804D01*
X010000Y003757D01*
X009979Y003751D01*
X009959Y003742D01*
X009941Y003730D01*
X009925Y003715D01*
X009912Y003697D01*
X009902Y003678D01*
X009895Y003657D01*
X009891Y003636D01*
X009891Y003614D01*
X009895Y003593D01*
X009902Y003572D01*
X009912Y003553D01*
X009925Y003535D01*
X009941Y003520D01*
X009959Y003508D01*
X009979Y003499D01*
X010000Y003493D01*
X010000Y003542D01*
X009984Y003548D01*
X009970Y003557D01*
X009958Y003570D01*
X009948Y003584D01*
X009942Y003600D01*
X009938Y003616D01*
X009938Y003634D01*
X009942Y003650D01*
X009948Y003666D01*
X009958Y003680D01*
X009970Y003693D01*
X009984Y003702D01*
X010000Y003708D01*
X010002Y003657D01*
X009994Y003650D01*
X009988Y003641D01*
X009985Y003630D01*
X009985Y003620D01*
X009988Y003609D01*
X009994Y003600D01*
X010002Y003593D01*
X010249Y003352D02*
X010226Y003625D01*
X010226Y003625D01*
X010249Y003898D01*
X010250Y003899D01*
X010282Y003894D01*
X010314Y003885D01*
X010344Y003873D01*
X010372Y003857D01*
X010399Y003838D01*
X010423Y003816D01*
X010444Y003792D01*
X010462Y003765D01*
X010477Y003736D01*
X010488Y003705D01*
X010496Y003674D01*
X010500Y003641D01*
X010500Y003609D01*
X010496Y003576D01*
X010488Y003545D01*
X010477Y003514D01*
X010462Y003485D01*
X010444Y003458D01*
X010423Y003434D01*
X010399Y003412D01*
X010372Y003393D01*
X010344Y003377D01*
X010314Y003365D01*
X010282Y003356D01*
X010250Y003351D01*
X010250Y003398D01*
X010278Y003403D01*
X010306Y003412D01*
X010332Y003424D01*
X010357Y003439D01*
X010380Y003457D01*
X010400Y003478D01*
X010417Y003502D01*
X010431Y003527D01*
X010442Y003554D01*
X010449Y003582D01*
X010453Y003611D01*
X010453Y003639D01*
X010449Y003668D01*
X010442Y003696D01*
X010431Y003723D01*
X010417Y003748D01*
X010400Y003772D01*
X010380Y003793D01*
X010357Y003811D01*
X010332Y003826D01*
X010306Y003838D01*
X010278Y003847D01*
X010250Y003852D01*
X010250Y003804D01*
X010275Y003799D01*
X010300Y003790D01*
X010322Y003778D01*
X010343Y003762D01*
X010362Y003744D01*
X010377Y003723D01*
X010390Y003700D01*
X010399Y003676D01*
X010404Y003651D01*
X010406Y003625D01*
X010404Y003599D01*
X010399Y003574D01*
X010390Y003550D01*
X010377Y003527D01*
X010362Y003506D01*
X010343Y003488D01*
X010322Y003472D01*
X010300Y003460D01*
X010275Y003451D01*
X010250Y003446D01*
X010250Y003493D01*
X010271Y003499D01*
X010291Y003508D01*
X010309Y003520D01*
X010325Y003535D01*
X010338Y003553D01*
X010348Y003572D01*
X010355Y003593D01*
X010359Y003614D01*
X010359Y003636D01*
X010355Y003657D01*
X010348Y003678D01*
X010338Y003697D01*
X010325Y003715D01*
X010309Y003730D01*
X010291Y003742D01*
X010271Y003751D01*
X010250Y003757D01*
X010250Y003708D01*
X010266Y003702D01*
X010280Y003693D01*
X010292Y003680D01*
X010302Y003666D01*
X010308Y003650D01*
X010312Y003634D01*
X010312Y003616D01*
X010308Y003600D01*
X010302Y003584D01*
X010292Y003570D01*
X010280Y003557D01*
X010266Y003548D01*
X010250Y003542D01*
X010248Y003593D01*
X010256Y003600D01*
X010262Y003609D01*
X010265Y003620D01*
X010265Y003630D01*
X010262Y003641D01*
X010256Y003650D01*
X010248Y003657D01*
X011376Y003898D02*
X011399Y003625D01*
X011399Y003625D01*
X011376Y003352D01*
X011375Y003351D01*
X011343Y003356D01*
X011311Y003365D01*
X011281Y003377D01*
X011253Y003393D01*
X011226Y003412D01*
X011202Y003434D01*
X011181Y003458D01*
X011163Y003485D01*
X011148Y003514D01*
X011137Y003545D01*
X011129Y003576D01*
X011125Y003609D01*
X011125Y003641D01*
X011129Y003674D01*
X011137Y003705D01*
X011148Y003736D01*
X011163Y003765D01*
X011181Y003792D01*
X011202Y003816D01*
X011226Y003838D01*
X011253Y003857D01*
X011281Y003873D01*
X011311Y003885D01*
X011343Y003894D01*
X011375Y003899D01*
X011375Y003852D01*
X011347Y003847D01*
X011319Y003838D01*
X011293Y003826D01*
X011268Y003811D01*
X011245Y003793D01*
X011225Y003772D01*
X011208Y003748D01*
X011194Y003723D01*
X011183Y003696D01*
X011176Y003668D01*
X011172Y003639D01*
X011172Y003611D01*
X011176Y003582D01*
X011183Y003554D01*
X011194Y003527D01*
X011208Y003502D01*
X011225Y003478D01*
X011245Y003457D01*
X011268Y003439D01*
X011293Y003424D01*
X011319Y003412D01*
X011347Y003403D01*
X011375Y003398D01*
X011375Y003446D01*
X011350Y003451D01*
X011325Y003460D01*
X011303Y003472D01*
X011282Y003488D01*
X011263Y003506D01*
X011248Y003527D01*
X011235Y003550D01*
X011226Y003574D01*
X011221Y003599D01*
X011219Y003625D01*
X011221Y003651D01*
X011226Y003676D01*
X011235Y003700D01*
X011248Y003723D01*
X011263Y003744D01*
X011282Y003762D01*
X011303Y003778D01*
X011325Y003790D01*
X011350Y003799D01*
X011375Y003804D01*
X011375Y003757D01*
X011354Y003751D01*
X011334Y003742D01*
X011316Y003730D01*
X011300Y003715D01*
X011287Y003697D01*
X011277Y003678D01*
X011270Y003657D01*
X011266Y003636D01*
X011266Y003614D01*
X011270Y003593D01*
X011277Y003572D01*
X011287Y003553D01*
X011300Y003535D01*
X011316Y003520D01*
X011334Y003508D01*
X011354Y003499D01*
X011375Y003493D01*
X011375Y003542D01*
X011359Y003548D01*
X011345Y003557D01*
X011333Y003570D01*
X011323Y003584D01*
X011317Y003600D01*
X011313Y003616D01*
X011313Y003634D01*
X011317Y003650D01*
X011323Y003666D01*
X011333Y003680D01*
X011345Y003693D01*
X011359Y003702D01*
X011375Y003708D01*
X011377Y003657D01*
X011369Y003650D01*
X011363Y003641D01*
X011360Y003630D01*
X011360Y003620D01*
X011363Y003609D01*
X011369Y003600D01*
X011377Y003593D01*
X011624Y003352D02*
X011601Y003625D01*
X011601Y003625D01*
X011624Y003898D01*
X011625Y003899D01*
X011657Y003894D01*
X011689Y003885D01*
X011719Y003873D01*
X011747Y003857D01*
X011774Y003838D01*
X011798Y003816D01*
X011819Y003792D01*
X011837Y003765D01*
X011852Y003736D01*
X011863Y003705D01*
X011871Y003674D01*
X011875Y003641D01*
X011875Y003609D01*
X011871Y003576D01*
X011863Y003545D01*
X011852Y003514D01*
X011837Y003485D01*
X011819Y003458D01*
X011798Y003434D01*
X011774Y003412D01*
X011747Y003393D01*
X011719Y003377D01*
X011689Y003365D01*
X011657Y003356D01*
X011625Y003351D01*
X011625Y003398D01*
X011653Y003403D01*
X011681Y003412D01*
X011707Y003424D01*
X011732Y003439D01*
X011755Y003457D01*
X011775Y003478D01*
X011792Y003502D01*
X011806Y003527D01*
X011817Y003554D01*
X011824Y003582D01*
X011828Y003611D01*
X011828Y003639D01*
X011824Y003668D01*
X011817Y003696D01*
X011806Y003723D01*
X011792Y003748D01*
X011775Y003772D01*
X011755Y003793D01*
X011732Y003811D01*
X011707Y003826D01*
X011681Y003838D01*
X011653Y003847D01*
X011625Y003852D01*
X011625Y003804D01*
X011650Y003799D01*
X011675Y003790D01*
X011697Y003778D01*
X011718Y003762D01*
X011737Y003744D01*
X011752Y003723D01*
X011765Y003700D01*
X011774Y003676D01*
X011779Y003651D01*
X011781Y003625D01*
X011779Y003599D01*
X011774Y003574D01*
X011765Y003550D01*
X011752Y003527D01*
X011737Y003506D01*
X011718Y003488D01*
X011697Y003472D01*
X011675Y003460D01*
X011650Y003451D01*
X011625Y003446D01*
X011625Y003493D01*
X011646Y003499D01*
X011666Y003508D01*
X011684Y003520D01*
X011700Y003535D01*
X011713Y003553D01*
X011723Y003572D01*
X011730Y003593D01*
X011734Y003614D01*
X011734Y003636D01*
X011730Y003657D01*
X011723Y003678D01*
X011713Y003697D01*
X011700Y003715D01*
X011684Y003730D01*
X011666Y003742D01*
X011646Y003751D01*
X011625Y003757D01*
X011625Y003708D01*
X011641Y003702D01*
X011655Y003693D01*
X011667Y003680D01*
X011677Y003666D01*
X011683Y003650D01*
X011687Y003634D01*
X011687Y003616D01*
X011683Y003600D01*
X011677Y003584D01*
X011667Y003570D01*
X011655Y003557D01*
X011641Y003548D01*
X011625Y003542D01*
X011623Y003593D01*
X011631Y003600D01*
X011637Y003609D01*
X011640Y003620D01*
X011640Y003630D01*
X011637Y003641D01*
X011631Y003650D01*
X011623Y003657D01*
X012751Y003898D02*
X012774Y003625D01*
X012774Y003625D01*
X012751Y003352D01*
X012750Y003351D01*
X012718Y003356D01*
X012686Y003365D01*
X012656Y003377D01*
X012628Y003393D01*
X012601Y003412D01*
X012577Y003434D01*
X012556Y003458D01*
X012538Y003485D01*
X012523Y003514D01*
X012512Y003545D01*
X012504Y003576D01*
X012500Y003609D01*
X012500Y003641D01*
X012504Y003674D01*
X012512Y003705D01*
X012523Y003736D01*
X012538Y003765D01*
X012556Y003792D01*
X012577Y003816D01*
X012601Y003838D01*
X012628Y003857D01*
X012656Y003873D01*
X012686Y003885D01*
X012718Y003894D01*
X012750Y003899D01*
X012750Y003852D01*
X012722Y003847D01*
X012694Y003838D01*
X012668Y003826D01*
X012643Y003811D01*
X012620Y003793D01*
X012600Y003772D01*
X012583Y003748D01*
X012569Y003723D01*
X012558Y003696D01*
X012551Y003668D01*
X012547Y003639D01*
X012547Y003611D01*
X012551Y003582D01*
X012558Y003554D01*
X012569Y003527D01*
X012583Y003502D01*
X012600Y003478D01*
X012620Y003457D01*
X012643Y003439D01*
X012668Y003424D01*
X012694Y003412D01*
X012722Y003403D01*
X012750Y003398D01*
X012750Y003446D01*
X012725Y003451D01*
X012700Y003460D01*
X012678Y003472D01*
X012657Y003488D01*
X012638Y003506D01*
X012623Y003527D01*
X012610Y003550D01*
X012601Y003574D01*
X012596Y003599D01*
X012594Y003625D01*
X012596Y003651D01*
X012601Y003676D01*
X012610Y003700D01*
X012623Y003723D01*
X012638Y003744D01*
X012657Y003762D01*
X012678Y003778D01*
X012700Y003790D01*
X012725Y003799D01*
X012750Y003804D01*
X012750Y003757D01*
X012729Y003751D01*
X012709Y003742D01*
X012691Y003730D01*
X012675Y003715D01*
X012662Y003697D01*
X012652Y003678D01*
X012645Y003657D01*
X012641Y003636D01*
X012641Y003614D01*
X012645Y003593D01*
X012652Y003572D01*
X012662Y003553D01*
X012675Y003535D01*
X012691Y003520D01*
X012709Y003508D01*
X012729Y003499D01*
X012750Y003493D01*
X012750Y003542D01*
X012734Y003548D01*
X012720Y003557D01*
X012708Y003570D01*
X012698Y003584D01*
X012692Y003600D01*
X012688Y003616D01*
X012688Y003634D01*
X012692Y003650D01*
X012698Y003666D01*
X012708Y003680D01*
X012720Y003693D01*
X012734Y003702D01*
X012750Y003708D01*
X012752Y003657D01*
X012744Y003650D01*
X012738Y003641D01*
X012735Y003630D01*
X012735Y003620D01*
X012738Y003609D01*
X012744Y003600D01*
X012752Y003593D01*
X012999Y003352D02*
X012976Y003625D01*
X012976Y003625D01*
X012999Y003898D01*
X013000Y003899D01*
X013032Y003894D01*
X013064Y003885D01*
X013094Y003873D01*
X013122Y003857D01*
X013149Y003838D01*
X013173Y003816D01*
X013194Y003792D01*
X013212Y003765D01*
X013227Y003736D01*
X013238Y003705D01*
X013246Y003674D01*
X013250Y003641D01*
X013250Y003609D01*
X013246Y003576D01*
X013238Y003545D01*
X013227Y003514D01*
X013212Y003485D01*
X013194Y003458D01*
X013173Y003434D01*
X013149Y003412D01*
X013122Y003393D01*
X013094Y003377D01*
X013064Y003365D01*
X013032Y003356D01*
X013000Y003351D01*
X013000Y003398D01*
X013028Y003403D01*
X013056Y003412D01*
X013082Y003424D01*
X013107Y003439D01*
X013130Y003457D01*
X013150Y003478D01*
X013167Y003502D01*
X013181Y003527D01*
X013192Y003554D01*
X013199Y003582D01*
X013203Y003611D01*
X013203Y003639D01*
X013199Y003668D01*
X013192Y003696D01*
X013181Y003723D01*
X013167Y003748D01*
X013150Y003772D01*
X013130Y003793D01*
X013107Y003811D01*
X013082Y003826D01*
X013056Y003838D01*
X013028Y003847D01*
X013000Y003852D01*
X013000Y003804D01*
X013025Y003799D01*
X013050Y003790D01*
X013072Y003778D01*
X013093Y003762D01*
X013112Y003744D01*
X013127Y003723D01*
X013140Y003700D01*
X013149Y003676D01*
X013154Y003651D01*
X013156Y003625D01*
X013154Y003599D01*
X013149Y003574D01*
X013140Y003550D01*
X013127Y003527D01*
X013112Y003506D01*
X013093Y003488D01*
X013072Y003472D01*
X013050Y003460D01*
X013025Y003451D01*
X013000Y003446D01*
X013000Y003493D01*
X013021Y003499D01*
X013041Y003508D01*
X013059Y003520D01*
X013075Y003535D01*
X013088Y003553D01*
X013098Y003572D01*
X013105Y003593D01*
X013109Y003614D01*
X013109Y003636D01*
X013105Y003657D01*
X013098Y003678D01*
X013088Y003697D01*
X013075Y003715D01*
X013059Y003730D01*
X013041Y003742D01*
X013021Y003751D01*
X013000Y003757D01*
X013000Y003708D01*
X013016Y003702D01*
X013030Y003693D01*
X013042Y003680D01*
X013052Y003666D01*
X013058Y003650D01*
X013062Y003634D01*
X013062Y003616D01*
X013058Y003600D01*
X013052Y003584D01*
X013042Y003570D01*
X013030Y003557D01*
X013016Y003548D01*
X013000Y003542D01*
X012998Y003593D01*
X013006Y003600D01*
X013012Y003609D01*
X013015Y003620D01*
X013015Y003630D01*
X013012Y003641D01*
X013006Y003650D01*
X012998Y003657D01*
X014225Y002561D02*
X014225Y002410D01*
X014300Y002335D01*
X014450Y002335D01*
X014450Y002561D01*
X014375Y002636D01*
X014300Y002636D01*
X014225Y002561D01*
X014450Y002335D02*
X014600Y002486D01*
X014675Y002636D01*
X014850Y002561D02*
X014850Y002410D01*
X014925Y002335D01*
X015075Y002335D02*
X015150Y002486D01*
X015150Y002561D01*
X015075Y002636D01*
X014925Y002636D01*
X014850Y002561D01*
X015075Y002335D02*
X015300Y002335D01*
X015300Y002636D01*
X015475Y002561D02*
X015925Y002561D01*
X015700Y002335D01*
X015700Y002636D01*
X016100Y002561D02*
X016100Y002410D01*
X016175Y002335D01*
X016325Y002486D02*
X016325Y002561D01*
X016250Y002636D01*
X016175Y002636D01*
X016100Y002561D01*
X016325Y002561D02*
X016400Y002636D01*
X016475Y002636D01*
X016550Y002561D01*
X016550Y002410D01*
X016475Y002335D01*
X016550Y002175D02*
X016550Y002025D01*
X016550Y002100D02*
X016175Y002100D01*
X016100Y002025D01*
X016100Y001950D01*
X016175Y001875D01*
X015925Y002025D02*
X015925Y002175D01*
X015925Y002100D02*
X015550Y002100D01*
X015475Y002025D01*
X015475Y001950D01*
X015550Y001875D01*
X015300Y002025D02*
X015300Y002175D01*
X015300Y002100D02*
X014925Y002100D01*
X014850Y002025D01*
X014850Y001950D01*
X014925Y001875D01*
X014675Y002025D02*
X014675Y002175D01*
X014675Y002100D02*
X014300Y002100D01*
X014225Y002025D01*
X014225Y001950D01*
X014300Y001875D01*
X016725Y001950D02*
X016725Y002025D01*
X016800Y002100D01*
X017175Y002100D01*
X017175Y002025D02*
X017175Y002175D01*
X017100Y002335D02*
X017175Y002410D01*
X017175Y002561D01*
X017100Y002636D01*
X017025Y002636D01*
X016725Y002335D01*
X016725Y002636D01*
X017350Y002636D02*
X017350Y002335D01*
X017350Y002486D02*
X017800Y002486D01*
X017650Y002335D01*
X017800Y002175D02*
X017800Y002025D01*
X017800Y002100D02*
X017425Y002100D01*
X017350Y002025D01*
X017350Y001950D01*
X017425Y001875D01*
X016800Y001875D02*
X016725Y001950D01*
X007499Y003227D02*
X007476Y003500D01*
X007476Y003500D01*
X007499Y003773D01*
X007500Y003774D01*
X007532Y003769D01*
X007564Y003760D01*
X007594Y003748D01*
X007622Y003732D01*
X007649Y003713D01*
X007673Y003691D01*
X007694Y003667D01*
X007712Y003640D01*
X007727Y003611D01*
X007738Y003580D01*
X007746Y003549D01*
X007750Y003516D01*
X007750Y003484D01*
X007746Y003451D01*
X007738Y003420D01*
X007727Y003389D01*
X007712Y003360D01*
X007694Y003333D01*
X007673Y003309D01*
X007649Y003287D01*
X007622Y003268D01*
X007594Y003252D01*
X007564Y003240D01*
X007532Y003231D01*
X007500Y003226D01*
X007500Y003273D01*
X007528Y003278D01*
X007556Y003287D01*
X007582Y003299D01*
X007607Y003314D01*
X007630Y003332D01*
X007650Y003353D01*
X007667Y003377D01*
X007681Y003402D01*
X007692Y003429D01*
X007699Y003457D01*
X007703Y003486D01*
X007703Y003514D01*
X007699Y003543D01*
X007692Y003571D01*
X007681Y003598D01*
X007667Y003623D01*
X007650Y003647D01*
X007630Y003668D01*
X007607Y003686D01*
X007582Y003701D01*
X007556Y003713D01*
X007528Y003722D01*
X007500Y003727D01*
X007500Y003679D01*
X007525Y003674D01*
X007550Y003665D01*
X007572Y003653D01*
X007593Y003637D01*
X007612Y003619D01*
X007627Y003598D01*
X007640Y003575D01*
X007649Y003551D01*
X007654Y003526D01*
X007656Y003500D01*
X007654Y003474D01*
X007649Y003449D01*
X007640Y003425D01*
X007627Y003402D01*
X007612Y003381D01*
X007593Y003363D01*
X007572Y003347D01*
X007550Y003335D01*
X007525Y003326D01*
X007500Y003321D01*
X007500Y003368D01*
X007521Y003374D01*
X007541Y003383D01*
X007559Y003395D01*
X007575Y003410D01*
X007588Y003428D01*
X007598Y003447D01*
X007605Y003468D01*
X007609Y003489D01*
X007609Y003511D01*
X007605Y003532D01*
X007598Y003553D01*
X007588Y003572D01*
X007575Y003590D01*
X007559Y003605D01*
X007541Y003617D01*
X007521Y003626D01*
X007500Y003632D01*
X007500Y003583D01*
X007516Y003577D01*
X007530Y003568D01*
X007542Y003555D01*
X007552Y003541D01*
X007558Y003525D01*
X007562Y003509D01*
X007562Y003491D01*
X007558Y003475D01*
X007552Y003459D01*
X007542Y003445D01*
X007530Y003432D01*
X007516Y003423D01*
X007500Y003417D01*
X007498Y003468D01*
X007506Y003475D01*
X007512Y003484D01*
X007515Y003495D01*
X007515Y003505D01*
X007512Y003516D01*
X007506Y003525D01*
X007498Y003532D01*
X007251Y003773D02*
X007274Y003500D01*
X007274Y003500D01*
X007251Y003227D01*
X007250Y003226D01*
X007218Y003231D01*
X007186Y003240D01*
X007156Y003252D01*
X007128Y003268D01*
X007101Y003287D01*
X007077Y003309D01*
X007056Y003333D01*
X007038Y003360D01*
X007023Y003389D01*
X007012Y003420D01*
X007004Y003451D01*
X007000Y003484D01*
X007000Y003516D01*
X007004Y003549D01*
X007012Y003580D01*
X007023Y003611D01*
X007038Y003640D01*
X007056Y003667D01*
X007077Y003691D01*
X007101Y003713D01*
X007128Y003732D01*
X007156Y003748D01*
X007186Y003760D01*
X007218Y003769D01*
X007250Y003774D01*
X007250Y003727D01*
X007222Y003722D01*
X007194Y003713D01*
X007168Y003701D01*
X007143Y003686D01*
X007120Y003668D01*
X007100Y003647D01*
X007083Y003623D01*
X007069Y003598D01*
X007058Y003571D01*
X007051Y003543D01*
X007047Y003514D01*
X007047Y003486D01*
X007051Y003457D01*
X007058Y003429D01*
X007069Y003402D01*
X007083Y003377D01*
X007100Y003353D01*
X007120Y003332D01*
X007143Y003314D01*
X007168Y003299D01*
X007194Y003287D01*
X007222Y003278D01*
X007250Y003273D01*
X007250Y003321D01*
X007225Y003326D01*
X007200Y003335D01*
X007178Y003347D01*
X007157Y003363D01*
X007138Y003381D01*
X007123Y003402D01*
X007110Y003425D01*
X007101Y003449D01*
X007096Y003474D01*
X007094Y003500D01*
X007096Y003526D01*
X007101Y003551D01*
X007110Y003575D01*
X007123Y003598D01*
X007138Y003619D01*
X007157Y003637D01*
X007178Y003653D01*
X007200Y003665D01*
X007225Y003674D01*
X007250Y003679D01*
X007250Y003632D01*
X007229Y003626D01*
X007209Y003617D01*
X007191Y003605D01*
X007175Y003590D01*
X007162Y003572D01*
X007152Y003553D01*
X007145Y003532D01*
X007141Y003511D01*
X007141Y003489D01*
X007145Y003468D01*
X007152Y003447D01*
X007162Y003428D01*
X007175Y003410D01*
X007191Y003395D01*
X007209Y003383D01*
X007229Y003374D01*
X007250Y003368D01*
X007250Y003417D01*
X007234Y003423D01*
X007220Y003432D01*
X007208Y003445D01*
X007198Y003459D01*
X007192Y003475D01*
X007188Y003491D01*
X007188Y003509D01*
X007192Y003525D01*
X007198Y003541D01*
X007208Y003555D01*
X007220Y003568D01*
X007234Y003577D01*
X007250Y003583D01*
X007252Y003532D01*
X007244Y003525D01*
X007238Y003516D01*
X007235Y003505D01*
X007235Y003495D01*
X007238Y003484D01*
X007244Y003475D01*
X007252Y003468D01*
X006124Y002977D02*
X006101Y003250D01*
X006101Y003250D01*
X006124Y003523D01*
X006125Y003524D01*
X006157Y003519D01*
X006189Y003510D01*
X006219Y003498D01*
X006247Y003482D01*
X006274Y003463D01*
X006298Y003441D01*
X006319Y003417D01*
X006337Y003390D01*
X006352Y003361D01*
X006363Y003330D01*
X006371Y003299D01*
X006375Y003266D01*
X006375Y003234D01*
X006371Y003201D01*
X006363Y003170D01*
X006352Y003139D01*
X006337Y003110D01*
X006319Y003083D01*
X006298Y003059D01*
X006274Y003037D01*
X006247Y003018D01*
X006219Y003002D01*
X006189Y002990D01*
X006157Y002981D01*
X006125Y002976D01*
X006125Y003023D01*
X006153Y003028D01*
X006181Y003037D01*
X006207Y003049D01*
X006232Y003064D01*
X006255Y003082D01*
X006275Y003103D01*
X006292Y003127D01*
X006306Y003152D01*
X006317Y003179D01*
X006324Y003207D01*
X006328Y003236D01*
X006328Y003264D01*
X006324Y003293D01*
X006317Y003321D01*
X006306Y003348D01*
X006292Y003373D01*
X006275Y003397D01*
X006255Y003418D01*
X006232Y003436D01*
X006207Y003451D01*
X006181Y003463D01*
X006153Y003472D01*
X006125Y003477D01*
X006125Y003429D01*
X006150Y003424D01*
X006175Y003415D01*
X006197Y003403D01*
X006218Y003387D01*
X006237Y003369D01*
X006252Y003348D01*
X006265Y003325D01*
X006274Y003301D01*
X006279Y003276D01*
X006281Y003250D01*
X006279Y003224D01*
X006274Y003199D01*
X006265Y003175D01*
X006252Y003152D01*
X006237Y003131D01*
X006218Y003113D01*
X006197Y003097D01*
X006175Y003085D01*
X006150Y003076D01*
X006125Y003071D01*
X006125Y003118D01*
X006146Y003124D01*
X006166Y003133D01*
X006184Y003145D01*
X006200Y003160D01*
X006213Y003178D01*
X006223Y003197D01*
X006230Y003218D01*
X006234Y003239D01*
X006234Y003261D01*
X006230Y003282D01*
X006223Y003303D01*
X006213Y003322D01*
X006200Y003340D01*
X006184Y003355D01*
X006166Y003367D01*
X006146Y003376D01*
X006125Y003382D01*
X006125Y003333D01*
X006141Y003327D01*
X006155Y003318D01*
X006167Y003305D01*
X006177Y003291D01*
X006183Y003275D01*
X006187Y003259D01*
X006187Y003241D01*
X006183Y003225D01*
X006177Y003209D01*
X006167Y003195D01*
X006155Y003182D01*
X006141Y003173D01*
X006125Y003167D01*
X006123Y003218D01*
X006131Y003225D01*
X006137Y003234D01*
X006140Y003245D01*
X006140Y003255D01*
X006137Y003266D01*
X006131Y003275D01*
X006123Y003282D01*
X005876Y003523D02*
X005899Y003250D01*
X005899Y003250D01*
X005876Y002977D01*
X005875Y002976D01*
X005843Y002981D01*
X005811Y002990D01*
X005781Y003002D01*
X005753Y003018D01*
X005726Y003037D01*
X005702Y003059D01*
X005681Y003083D01*
X005663Y003110D01*
X005648Y003139D01*
X005637Y003170D01*
X005629Y003201D01*
X005625Y003234D01*
X005625Y003266D01*
X005629Y003299D01*
X005637Y003330D01*
X005648Y003361D01*
X005663Y003390D01*
X005681Y003417D01*
X005702Y003441D01*
X005726Y003463D01*
X005753Y003482D01*
X005781Y003498D01*
X005811Y003510D01*
X005843Y003519D01*
X005875Y003524D01*
X005875Y003477D01*
X005847Y003472D01*
X005819Y003463D01*
X005793Y003451D01*
X005768Y003436D01*
X005745Y003418D01*
X005725Y003397D01*
X005708Y003373D01*
X005694Y003348D01*
X005683Y003321D01*
X005676Y003293D01*
X005672Y003264D01*
X005672Y003236D01*
X005676Y003207D01*
X005683Y003179D01*
X005694Y003152D01*
X005708Y003127D01*
X005725Y003103D01*
X005745Y003082D01*
X005768Y003064D01*
X005793Y003049D01*
X005819Y003037D01*
X005847Y003028D01*
X005875Y003023D01*
X005875Y003071D01*
X005850Y003076D01*
X005825Y003085D01*
X005803Y003097D01*
X005782Y003113D01*
X005763Y003131D01*
X005748Y003152D01*
X005735Y003175D01*
X005726Y003199D01*
X005721Y003224D01*
X005719Y003250D01*
X005721Y003276D01*
X005726Y003301D01*
X005735Y003325D01*
X005748Y003348D01*
X005763Y003369D01*
X005782Y003387D01*
X005803Y003403D01*
X005825Y003415D01*
X005850Y003424D01*
X005875Y003429D01*
X005875Y003382D01*
X005854Y003376D01*
X005834Y003367D01*
X005816Y003355D01*
X005800Y003340D01*
X005787Y003322D01*
X005777Y003303D01*
X005770Y003282D01*
X005766Y003261D01*
X005766Y003239D01*
X005770Y003218D01*
X005777Y003197D01*
X005787Y003178D01*
X005800Y003160D01*
X005816Y003145D01*
X005834Y003133D01*
X005854Y003124D01*
X005875Y003118D01*
X005875Y003167D01*
X005859Y003173D01*
X005845Y003182D01*
X005833Y003195D01*
X005823Y003209D01*
X005817Y003225D01*
X005813Y003241D01*
X005813Y003259D01*
X005817Y003275D01*
X005823Y003291D01*
X005833Y003305D01*
X005845Y003318D01*
X005859Y003327D01*
X005875Y003333D01*
X005877Y003282D01*
X005869Y003275D01*
X005863Y003266D01*
X005860Y003255D01*
X005860Y003245D01*
X005863Y003234D01*
X005869Y003225D01*
X005877Y003218D01*
D20*
X004875Y002752D03*
X004875Y001752D03*
X007063Y001627D03*
X007063Y002627D03*
X008438Y002627D03*
X008438Y001627D03*
X009813Y001627D03*
X009813Y002627D03*
X011188Y002627D03*
X011188Y001627D03*
X012563Y001627D03*
X012563Y002627D03*
X012500Y007752D03*
X012500Y008752D03*
X018750Y013127D03*
X018750Y014127D03*
X002062Y007998D03*
X002062Y006998D03*
X002063Y005252D03*
X002063Y004252D03*
D21*
X013400Y004375D03*
X013970Y004375D03*
D22*
X013187Y007462D03*
X013187Y008032D03*
X010938Y007163D03*
X010938Y006593D03*
D23*
X003998Y003750D03*
X002998Y003750D03*
X002002Y008875D03*
X001002Y008875D03*
X012002Y014125D03*
X013002Y014125D03*
D24*
G36*
X004223Y005239D02*
X004139Y005323D01*
X004305Y005489D01*
X004389Y005405D01*
X004223Y005239D01*
G37*
G36*
X004449Y005013D02*
X004365Y005097D01*
X004531Y005263D01*
X004615Y005179D01*
X004449Y005013D01*
G37*
D25*
X003625Y014441D02*
X003684Y014500D01*
X003615Y014569D01*
X003556Y014510D01*
X003625Y014441D01*
D26*
X003517Y014343D03*
D27*
X013000Y006643D03*
X013000Y005107D03*
D28*
X011688Y009250D02*
X011288Y009250D01*
X010938Y009250D02*
X010788Y009250D01*
X007588Y009250D02*
X007438Y009250D01*
X007088Y009250D02*
X006688Y009250D01*
D29*
X007268Y009250D03*
X007768Y009250D03*
X010608Y009250D03*
X011108Y009250D03*
D30*
X011165Y011841D03*
X010710Y011841D03*
X010040Y011841D03*
X009585Y011841D03*
X008915Y011841D03*
X008915Y013159D03*
X009585Y013159D03*
X010040Y013159D03*
X010710Y013159D03*
X011165Y013159D03*
X011835Y013159D03*
X011835Y011841D03*
D31*
X014505Y015375D03*
X014505Y016625D03*
X015745Y016625D03*
X016630Y016625D03*
X017870Y016625D03*
X017870Y015375D03*
X016630Y015375D03*
X015745Y015375D03*
X006245Y015375D03*
X005005Y015375D03*
X004120Y015375D03*
X002880Y015375D03*
X002880Y016625D03*
X004120Y016625D03*
X005005Y016625D03*
X006245Y016625D03*
D32*
X005845Y016625D03*
X005405Y015375D03*
X003720Y016625D03*
X003280Y015375D03*
X014905Y016625D03*
X015345Y015375D03*
X017030Y016625D03*
X017470Y015375D03*
D33*
X018750Y015380D03*
X018750Y016620D03*
X013125Y016505D03*
X013125Y017745D03*
X007625Y016870D03*
X007625Y015630D03*
X002000Y015380D03*
X002000Y016620D03*
D34*
X002000Y016220D03*
X007625Y016030D03*
X013125Y016905D03*
X018750Y016220D03*
M02*
