%
M48
M72
T01C0.0315
T02C0.0320
T03C0.0354
T04C0.0394
T05C0.0400
T06C0.0591
%
T01
X3500Y9238
X6063Y9238
X14375Y5500
X16375Y5500
X17500Y5500
X19500Y5500
X17250Y9238
X14688Y9238
X12625Y17875
X12625Y19125
X8125Y19125
X8125Y17875
T02
X7625Y18000
X7625Y15000
X6563Y10250
X5563Y10250
X6688Y9250
X4000Y10250
X3000Y10250
X11688Y9250
X12000Y6825
X12000Y4925
X14188Y10250
X15188Y10250
X16750Y10250
X17750Y10250
X13125Y15625
X13125Y18625
T03
X11241Y18000
X9509Y18000
T04
X1484Y1484
X3106Y11404
X3894Y11404
X5669Y11404
X6456Y11404
X6456Y13372
X5669Y13372
X3894Y13372
X3106Y13372
X3106Y17900
X3894Y17900
X5669Y17900
X6456Y17900
X1484Y18217
X14294Y17900
X15081Y17900
X16856Y17900
X17644Y17900
X19201Y18217
X17644Y13372
X16856Y13372
X15081Y13372
X14294Y13372
X14294Y11404
X15081Y11404
X16856Y11404
X17644Y11404
X19201Y1484
T05
X19390Y4220
X17610Y4220
X16265Y4220
X14485Y4220
X14485Y6780
X16265Y6780
X17610Y6780
X19390Y6780
X4875Y5750
X4875Y4750
X3875Y4750
X2875Y4750
X2875Y5750
X3875Y5750
T06
X3500Y11404
X3500Y13372
X6063Y13372
X6063Y11404
X6063Y17900
X3500Y17900
X14688Y17900
X17250Y17900
X17250Y13372
X17250Y11404
X14688Y11404
X14688Y13372
M30
